<svg width="33" height="30" viewBox="0 0 33 30" fill="none" xmlns="http://www.w3.org/2000/svg">
<path d="M1.37511 12.6912C1.01041 12.6912 0.660646 12.5669 0.402762 12.3457C0.144878 12.1245 0 11.8244 0 11.5116V2.07685C0 1.76399 0.144878 1.46395 0.402762 1.24272C0.660646 1.0215 1.01041 0.897217 1.37511 0.897217H12.376C12.7407 0.897217 13.0905 1.0215 13.3484 1.24272C13.6063 1.46395 13.7511 1.76399 13.7511 2.07685V11.5116C13.7511 11.8244 13.6063 12.1245 13.3484 12.3457C13.0905 12.5669 12.7407 12.6912 12.376 12.6912H1.37511ZM20.6267 12.6912C20.262 12.6912 19.9123 12.5669 19.6544 12.3457C19.3965 12.1245 19.2516 11.8244 19.2516 11.5116V2.07685C19.2516 1.76399 19.3965 1.46395 19.6544 1.24272C19.9123 1.0215 20.262 0.897217 20.6267 0.897217H31.6249C31.9896 0.897217 32.3394 1.0215 32.5972 1.24272C32.8551 1.46395 33 1.76399 33 2.07685V11.5116C33 11.8244 32.8551 12.1245 32.5972 12.3457C32.3394 12.5669 31.9896 12.6912 31.6249 12.6912H20.6267ZM1.37511 29.2061C1.01041 29.2061 0.660646 29.0818 0.402762 28.8606C0.144878 28.6394 0 28.3393 0 28.0265V18.5894C0 18.2765 0.144878 17.9765 0.402762 17.7553C0.660646 17.534 1.01041 17.4097 1.37511 17.4097H12.376C12.7407 17.4097 13.0905 17.534 13.3484 17.7553C13.6063 17.9765 13.7511 18.2765 13.7511 18.5894V28.0265C13.7511 28.3393 13.6063 28.6394 13.3484 28.8606C13.0905 29.0818 12.7407 29.2061 12.376 29.2061H1.37511ZM20.6267 29.2061C20.262 29.2061 19.9123 29.0818 19.6544 28.8606C19.3965 28.6394 19.2516 28.3393 19.2516 28.0265V18.5894C19.2516 18.2765 19.3965 17.9765 19.6544 17.7553C19.9123 17.534 20.262 17.4097 20.6267 17.4097H31.6249C31.9896 17.4097 32.3394 17.534 32.5972 17.7553C32.8551 17.9765 33 18.2765 33 18.5894V28.0265C33 28.3393 32.8551 28.6394 32.5972 28.8606C32.3394 29.0818 31.9896 29.2061 31.6249 29.2061H20.6267Z" fill="#FF6D6F"/>
</svg>
