<svg width="122" height="163" viewBox="0 0 122 163" fill="none" xmlns="http://www.w3.org/2000/svg">
<path d="M109.177 11.6641C109.024 11.7445 108.866 11.8159 108.705 11.8781C105.664 13.1088 101.276 12.6986 98.0927 12.1903C94.7358 11.646 91.6248 10.0905 89.1752 7.73149C88.436 7.08188 87.8718 6.25705 87.5344 5.33268C87.4039 4.93695 87.3659 4.51662 87.423 4.1039C87.4802 3.69118 87.6312 3.29704 87.8643 2.9517C87.9472 2.83443 88.0429 2.72676 88.1497 2.63067C89.9572 1.03309 92.2583 0.104437 94.6684 0C97.0834 0.00446467 99.4855 0.352771 101.802 1.03443C103.423 1.40863 105.068 1.66789 106.725 1.81026C105.655 3.09438 105.048 4.58361 105.833 5.9034C105.343 5.9034 104.852 5.84098 104.353 5.84098C106.493 6.53654 109.168 9.4169 109.177 11.6641Z" fill="#805538"/>
<path d="M105.869 5.86766C107.159 5.96716 108.44 6.15788 109.703 6.43838C109.444 4.96671 109.39 3.46614 109.543 1.97962C108.651 1.97962 107.697 1.89044 106.725 1.80127C105.004 2.37199 105.048 4.54787 105.869 5.86766Z" fill="#CCCCCC"/>
<path d="M108.036 3.17465C108.487 2.17738 109.286 1.37852 110.283 0.92744C111.28 0.486816 112.35 0.232924 113.44 0.178368C114.731 0.0121723 116.043 0.17158 117.256 0.642078C118.699 1.37161 119.871 2.54335 120.6 3.98615C121.189 5.01166 121.662 6.26903 121.189 7.34805C120.993 7.72846 120.716 8.06087 120.377 8.32143C120.038 8.58199 119.645 8.76424 119.227 8.85511C118.384 9.01129 117.52 9.01129 116.677 8.85511C116.766 9.17744 116.736 9.52097 116.594 9.82356C116.452 10.1262 116.206 10.3678 115.901 10.5049C115.283 10.7664 114.597 10.8166 113.948 10.6475C112.1 10.2955 110.424 9.33479 109.186 7.91878C108.107 6.72383 107.376 4.78872 108.036 3.17465Z" fill="#ED1C24"/>
<g style="mix-blend-mode:multiply" opacity="0.5">
<path d="M109.177 11.6642C109.024 11.7446 108.866 11.816 108.705 11.8782C108.22 11.253 107.612 10.7341 106.919 10.3536C106.226 9.97318 105.461 9.73936 104.674 9.66668C103.391 9.62729 102.111 9.79901 100.884 10.175C98.6559 10.7966 96.3476 11.0822 94.0353 11.0221C92.2177 10.2267 90.559 9.10883 89.1395 7.72266C88.4004 7.07305 87.8362 6.24822 87.4987 5.32385C87.3683 4.92813 87.3302 4.50779 87.3874 4.09507C87.4446 3.68235 87.5956 3.28821 87.8287 2.94287C88.0159 3.19256 88.1765 3.43333 88.2746 3.54035C88.9316 4.24056 89.7623 4.75437 90.6823 5.02957C92.4882 5.4353 94.3644 5.4078 96.1576 4.94931C97.9431 4.49473 99.7821 4.28474 101.624 4.32509C103.135 4.45482 104.585 4.98418 105.824 5.8589C105.334 5.8589 104.843 5.79648 104.344 5.79648C106.493 6.53663 109.168 9.41699 109.177 11.6642Z" fill="#663F25"/>
</g>
<path d="M100.643 68.023C99.5488 69.3177 98.0086 70.1546 96.3269 70.3683C94.4392 69.4257 92.4766 68.6412 90.4592 68.023C89.1338 67.5355 87.8384 66.9698 86.5801 66.3287C83.5406 64.7961 80.731 62.845 78.2333 60.5323C77.3596 59.7329 76.5291 58.8875 75.7453 57.9997C75.6026 57.8481 75.4689 57.6876 75.3262 57.5271C75.4689 57.1971 75.6205 56.8583 75.7899 56.5194C75.9593 56.1805 76.0574 55.9754 76.209 55.7079C76.698 54.7449 77.3293 53.8611 78.0817 53.0862C78.4859 52.6299 79.0272 52.317 79.6244 52.1944C80.0144 52.1639 80.406 52.2281 80.7659 52.3817L81.1939 52.56L81.5417 52.7027C82.4334 53.0772 83.2538 53.4429 84.101 53.8352C85.3239 54.386 86.5148 55.0052 87.668 55.6901C92.5727 58.6775 95.7562 63.9299 100.153 67.6306C100.322 67.7287 100.474 67.8803 100.643 68.023Z" fill="#805538"/>
<path d="M104.745 73.8193C103.811 71.6146 102.412 69.6374 100.643 68.0229C99.5489 69.3176 98.0087 70.1546 96.3271 70.3683C96.7867 70.6353 97.2276 70.9332 97.6469 71.26C96.1986 71.8444 94.6411 72.109 93.0811 72.0358C91.583 72.0358 89.951 72.2231 88.8809 73.2575C88.6366 73.465 88.4481 73.7304 88.3329 74.0295C88.2176 74.3287 88.1791 74.6519 88.221 74.9697C88.333 75.2987 88.5216 75.5964 88.7712 75.8383C89.0208 76.0802 89.3244 76.2593 89.6568 76.3608C92.332 77.4755 95.3105 76.6729 98.173 76.6284C99.5374 76.6284 100.902 76.771 102.266 76.8424C103.274 76.8959 104.487 76.7889 104.941 75.8971C105.058 75.5567 105.101 75.1954 105.067 74.8371C105.033 74.4788 104.924 74.1318 104.745 73.8193Z" fill="white"/>
<path d="M96.5411 97.8343C95.6552 99.4576 94.2522 100.738 92.555 101.473C92.555 101.473 92.5104 101.473 92.4837 101.473C84.9483 98.2089 77.3239 94.9718 69.8153 91.6634C67.7488 90.6298 66.1543 88.847 65.3566 86.6785C64.8727 85.458 64.5287 84.1866 64.331 82.8886C64.2686 82.5319 64.2151 82.1752 64.1705 81.8096C67.2791 82.596 70.5117 82.7657 73.6855 82.3089C74.1849 82.2376 74.6843 82.1395 75.1748 82.0236C75.1748 82.1306 75.1748 82.2287 75.1748 82.3268C75.0567 83.1337 74.9823 83.9464 74.9518 84.7613C80.8731 84.7613 84.8592 87.4365 87.7663 90.1118C89.6746 91.8953 91.1193 93.6788 92.341 94.6776C93.6466 95.8499 95.052 96.9062 96.5411 97.8343Z" fill="#805538"/>
<path d="M100.099 99.7334C98.5119 98.9308 97.424 98.3869 96.5322 97.834C95.6519 99.4584 94.2512 100.74 92.555 101.472C93.1525 101.731 93.5895 101.927 93.7767 102.569C93.964 103.211 93.2328 103.461 92.7245 103.809C90.8385 105.184 88.7508 106.257 86.5357 106.992C85.7777 107.188 84.7522 107.295 84.7522 108.089C84.7522 108.883 85.5102 109.204 86.1523 109.48C88.453 110.443 90.4238 111.317 92.8582 110.764C93.6094 110.638 94.3264 110.358 94.9646 109.942C95.6029 109.526 96.1486 108.984 96.5679 108.348C97.4884 106.735 98.8662 105.432 100.527 104.602C103.568 102.756 101.892 100.625 100.099 99.7334Z" fill="white"/>
<path d="M69.0395 30.5603C67.5089 32.4733 66.2237 34.5704 65.2139 36.8026C62.717 42.4563 62.4494 49.3495 65.6419 54.6376L76.9761 55.7523C79.0778 54.704 80.7215 52.9206 81.5954 50.7407C82.3468 48.8542 82.7575 46.8494 82.8081 44.8194C76.7086 41.7696 71.5364 36.8472 69.0395 30.5603Z" fill="#ED1C24"/>
<path d="M107.162 26.5207C106.731 29.1192 105.961 31.6497 104.87 34.0471C104.117 35.6493 103.101 37.1142 101.865 38.381C99.3765 40.6847 96.2831 42.2314 92.9472 42.8397C90.6732 43.3302 88.3369 43.8831 85.9915 44.2041C85.8073 44.2398 85.62 44.2665 85.4298 44.2844C83.8179 43.2508 82.2884 42.094 80.8551 40.8244C76.8657 37.4126 73.799 33.0518 71.9375 28.1437C71.8662 27.9297 71.7859 27.7156 71.7146 27.4927C73.3728 25.8008 75.1424 24.2218 77.0116 22.7664C81.8806 18.9408 87.2043 15.7483 92.1714 12.0119C92.6834 11.6316 93.2163 11.2803 93.7676 10.9596C96.4513 9.49482 99.3543 8.47394 102.364 7.93657C103.737 7.60557 105.177 7.68937 106.502 8.17734C107.693 8.77206 108.6 9.814 109.026 11.0755C109.213 11.6517 109.312 12.2531 109.32 12.859C109.471 16.863 107.661 23.8454 107.162 26.5207Z" fill="#805538"/>
<g style="mix-blend-mode:multiply" opacity="0.5">
<path d="M98.6099 23.9347C98.2465 24.2904 97.9655 24.7215 97.7868 25.1976C97.6081 25.6737 97.5359 26.1832 97.5755 26.6902C97.6678 27.1817 97.8676 27.6468 98.1605 28.0522C98.4534 28.4576 98.8322 28.7934 99.2698 29.0355C100.142 29.5151 101.094 29.8352 102.079 29.9807C103.509 30.2978 104.978 30.403 106.439 30.2929C107.904 30.181 109.3 29.6275 110.443 28.7055C111.042 28.2426 111.513 27.6349 111.811 26.9398C112.11 26.2447 112.227 25.485 112.151 24.7322C112.076 23.9794 111.809 23.2582 111.378 22.6366C110.947 22.0151 110.364 21.5135 109.685 21.1792C108.316 20.4634 106.746 20.2279 105.227 20.5103C103.872 20.7263 102.566 21.1759 101.365 21.8391C100.911 22.0977 100.474 22.4544 100.046 22.7308C99.5181 23.0699 99.0357 23.4744 98.6099 23.9347Z" fill="#663F25"/>
</g>
<g style="mix-blend-mode:multiply" opacity="0.5">
<path d="M109.311 12.8858C108.885 11.9887 108.235 11.2172 107.422 10.6467C106.609 10.0763 105.662 9.72626 104.674 9.6309C103.391 9.5915 102.111 9.76323 100.884 10.1392C98.5655 10.7938 96.1566 11.0708 93.75 10.9596C96.4337 9.49482 99.3367 8.47394 102.346 7.93657C103.719 7.60557 105.159 7.68937 106.484 8.17734C107.675 8.77206 108.583 9.814 109.008 11.0755C109.201 11.6598 109.304 12.2704 109.311 12.8858Z" fill="#663F25"/>
</g>
<path d="M82.8349 45.6577C82.7151 48.041 82.2804 50.3978 81.5418 52.6669C80.8316 55.1816 79.8259 57.6033 78.5455 59.8812C78.4237 60.0892 78.3193 60.3069 78.2334 60.5322C78.0532 60.9991 77.9566 61.4942 77.9481 61.9946C77.7608 72.3479 77.8232 78.0462 77.2347 81.7469L75.1301 82.2642L73.5517 82.6476C70.6179 83.3075 67.1846 83.798 64.331 82.826C63.9738 82.7117 63.6276 82.5654 63.2966 82.389C62.2265 74.2295 62.8864 62.7705 64.3667 51.9803C64.5094 50.9815 64.652 49.9738 64.8036 48.984C68.986 48.4311 74.1046 46.0769 78.7417 45.1762C79.6005 45.001 80.4707 44.8878 81.3456 44.8373C81.8328 44.8104 82.321 44.8104 82.8081 44.8373C82.826 45.0989 82.8349 45.3724 82.8349 45.6577Z" fill="#ED1C24"/>
<path d="M101.606 21.616C101.102 22.1152 100.712 22.7185 100.464 23.3838C100.216 24.0491 100.116 24.7604 100.171 25.4683C100.3 26.1514 100.579 26.7977 100.985 27.3617C101.392 27.9256 101.918 28.3934 102.525 28.7321C103.743 29.4039 105.072 29.851 106.449 30.0519C108.441 30.4908 110.487 30.638 112.521 30.4889C114.566 30.338 116.514 29.5629 118.104 28.2684C118.887 27.62 119.512 26.8005 119.929 25.8729C120.347 24.9454 120.546 23.9345 120.512 22.9179C120.395 21.8476 120.019 20.8219 119.416 19.9299C118.813 19.038 118.001 18.3066 117.052 17.7992C115.129 16.8126 112.931 16.4987 110.809 16.9075C108.948 17.2199 107.156 17.8536 105.512 18.7802C104.87 19.1458 104.291 19.6719 103.666 20.0375C102.916 20.475 102.224 21.0053 101.606 21.616Z" fill="#805538"/>
<path d="M108.5 18.3524C108.5 18.7982 109.998 18.6466 109.338 19.9575C106.663 25.2099 107.804 27.4928 110.898 28.7413C111.585 29.0266 110.39 29.8114 110.346 30.5248C112.842 30.3464 116.285 30.1413 118.264 28.6164C119.276 27.8787 120.061 26.8739 120.534 25.7147C121.006 24.5555 121.147 23.2876 120.94 22.0531C120.56 20.4918 119.605 19.1316 118.264 18.2453C114.296 15.6682 109.347 16.7918 107.777 17.9957C107.608 18.1651 108.5 18.0224 108.5 18.3524Z" fill="black"/>
<path d="M107.18 18.1116C107.242 17.9618 107.336 17.8278 107.456 17.7192C108.014 17.1346 108.706 16.694 109.472 16.4351C109.793 16.3192 110.221 16.2657 110.435 16.5332C110.496 16.6291 110.528 16.7405 110.528 16.8542C110.528 16.9679 110.496 17.0793 110.435 17.1752C110.323 17.3738 110.167 17.5445 109.98 17.6746C109.659 17.9332 106.787 19.1906 107.18 18.1116Z" fill="#805538"/>
<path d="M110.595 30.9528C111.489 31.2364 112.452 31.2144 113.333 30.8904C113.565 30.7834 113.814 30.5961 113.805 30.3375C113.8 30.262 113.777 30.1887 113.739 30.1236C113.7 30.0585 113.646 30.0035 113.582 29.963C113.451 29.8849 113.306 29.8334 113.154 29.8114C112.563 29.7276 111.962 29.7276 111.371 29.8114C111.023 29.8114 110.265 29.8114 110.033 30.1146C109.801 30.4178 110.283 30.8547 110.595 30.9528Z" fill="#805538"/>
<path d="M85.9918 44.2396C84.8692 44.5369 83.8029 45.0159 82.835 45.6575H82.7636C82.2821 45.4138 81.8094 45.1552 81.3457 44.8817C80.7661 44.5517 80.2043 44.1861 79.6514 43.8027C75.2712 40.763 71.7805 36.6105 69.5389 31.7729C69.3606 31.3895 69.1911 30.9971 69.0396 30.6047C69.8765 29.5356 70.7695 28.5116 71.7148 27.5371C71.7861 27.76 71.8664 27.9741 71.9377 28.1881C73.8387 32.9513 76.9049 37.1612 80.8553 40.4318C82.4658 41.8318 84.1733 43.1161 85.965 44.2753L85.9918 44.2396Z" fill="#CCCCCC"/>
<g style="mix-blend-mode:multiply" opacity="0.5">
<path d="M104.87 34.056C104.115 35.6542 103.099 37.1158 101.865 38.3809C99.3767 40.6847 96.2833 42.2314 92.9473 42.8397C90.6734 43.3302 88.337 43.8831 85.9917 44.2041C84.1916 43.0546 82.4752 41.7792 80.8552 40.3874C80.8581 40.1725 80.8432 39.9578 80.8106 39.7453C80.5876 38.2561 79.464 37.0701 78.5723 35.8751C77.2411 34.1346 76.3535 32.0963 75.9862 29.9361C75.833 28.4828 76.0637 27.0147 76.6552 25.6784C77.2467 24.3421 78.1783 23.1843 79.357 22.3205C81.6541 20.6475 84.4164 19.734 87.2579 19.7077C87.5344 19.7077 91.3243 13.7508 92.6798 15.6502C91.69 19.4936 86.9369 24.1932 87.8733 26.3512C88.6312 28.0901 90.5485 28.6876 91.2263 30.4622C91.904 32.2368 94.5614 31.7998 96.0863 33.0037C97.6112 34.2076 99.1183 37.5962 101.018 37.0166C102.364 36.6064 103.657 35.242 104.87 34.056Z" fill="#663F25"/>
</g>
<g style="mix-blend-mode:multiply" opacity="0.5">
<path d="M87.4006 66.2395C87.1251 66.2461 86.8507 66.276 86.5802 66.3286C83.5407 64.7961 80.7311 62.845 78.2334 60.5322C78.3193 60.307 78.4237 60.0893 78.5455 59.8813C79.8258 57.6033 80.8316 55.1817 81.5418 52.667C82.4336 53.0415 83.254 53.4071 84.1011 53.7995C83.5985 54.7036 83.2234 55.673 82.9864 56.6799C82.1125 60.4163 83.7979 64.9553 87.4006 66.2395Z" fill="#663F25"/>
</g>
<g style="mix-blend-mode:multiply" opacity="0.5">
<path d="M87.7217 90.0582C82.6033 88.149 77.2477 86.9488 71.804 86.4912C72.5176 85.2781 73.1148 84.0001 73.5875 82.6745L75.1659 82.291C75.0478 83.0979 74.9734 83.9106 74.9429 84.7255C80.8552 84.6898 84.8146 87.3651 87.7217 90.0582Z" fill="#663F25"/>
</g>
<g style="mix-blend-mode:multiply" opacity="0.5">
<path d="M82.8349 45.6576C82.7152 48.0409 82.2804 50.3977 81.5419 52.6668C80.8317 55.1815 79.8259 57.6032 78.5456 59.8811C78.4237 60.0891 78.3193 60.3068 78.2335 60.5321C78.0532 60.999 77.9566 61.4941 77.9481 61.9945C77.7608 72.3478 77.8233 78.0461 77.2347 81.7468L75.1302 82.2641L73.5518 82.6475L73.6855 82.2462C75.3888 77.1722 75.5671 71.5452 75.7098 66.1412C75.7901 63.4659 75.7098 60.7372 75.7098 57.9995C75.7098 57.509 75.7098 57.0186 75.7098 56.5192C75.7098 56.2338 75.7098 55.9485 75.7544 55.6274C75.9684 51.9356 76.6461 48.3775 78.5366 45.3366C78.5366 45.2742 78.6169 45.1939 78.6615 45.1315C78.9647 44.6678 79.2768 44.2398 79.5532 43.7136C80.1061 44.0971 80.6679 44.4627 81.2476 44.7926C81.8272 45.1226 82.1393 45.3277 82.6655 45.5685L82.8349 45.6576Z" fill="#9E1822"/>
</g>
<g style="mix-blend-mode:multiply" opacity="0.5">
<path d="M85.9917 44.2399C84.8692 44.5372 83.8028 45.0162 82.8349 45.6578H82.7636C82.282 45.4141 81.8094 45.1554 81.3457 44.882C80.7661 44.552 80.2043 44.1864 79.6514 43.803C79.7584 43.6335 79.8654 43.4552 79.9635 43.2768C80.4151 42.5402 80.718 41.7222 80.8552 40.8691C80.8644 40.7236 80.8644 40.5776 80.8552 40.4321C82.4658 41.8321 84.1733 43.1164 85.965 44.2756L85.9917 44.2399Z" fill="#663F25"/>
</g>
<path d="M96.7105 33.4137C95.9856 32.8627 95.1444 32.4847 94.2511 32.3085C93.3578 32.1323 92.436 32.1626 91.5562 32.3971C90.8689 30.945 89.7712 29.726 88.3988 28.8908C87.0263 28.0556 85.4392 27.6408 83.8336 27.6976L84.1012 27.5995C87.6538 23.2647 90.6884 18.5302 93.1435 13.492C92.1181 12.8204 91.0452 12.2244 89.9332 11.7085C84.2617 15.3468 78.6615 20.3407 77.0028 26.8683C76.8358 27.6961 76.835 28.5489 77.0003 29.3771C77.1657 30.2053 77.4939 30.9924 77.9659 31.6927C78.9178 33.0859 80.0617 34.3377 81.3635 35.4113C83.23 37.2045 85.2908 38.7838 87.5077 40.1197C89.7407 41.4658 92.3352 42.0888 94.9359 41.9032C95.8211 41.7384 96.6357 41.3093 97.2724 40.6727C97.9091 40.036 98.3381 39.2214 98.503 38.3362C98.6832 37.4303 98.6114 36.4922 98.2954 35.6242C97.9793 34.7563 97.4311 33.9917 96.7105 33.4137Z" fill="#805538"/>
<path d="M102.748 7.52635C102.709 7.84082 102.593 8.1409 102.411 8.40047C102.229 8.66003 101.987 8.87119 101.705 9.01557C101.323 9.21111 100.986 9.48304 100.715 9.81443C100.443 10.1458 100.243 10.5296 100.126 10.9418C100.272 10.7949 100.458 10.6947 100.661 10.6541C100.864 10.6134 101.075 10.6341 101.266 10.7134C101.457 10.7928 101.621 10.9273 101.735 11.0997C101.85 11.2722 101.911 11.4749 101.91 11.6819C101.858 12.0904 101.662 12.4669 101.357 12.7431C100.315 13.6976 99.0376 14.3564 97.656 14.6514C96.6827 14.9495 95.6763 15.1263 94.6597 15.1776C94.1496 15.1874 93.6404 15.1335 93.1437 15.0171C92.6462 14.9092 92.17 14.7193 91.7347 14.4553L89.7907 12.2794C89.626 11.9443 89.5118 11.5867 89.4519 11.2182C89.3249 10.3525 89.42 9.46879 89.7283 8.64996C90.1945 7.49999 90.8451 6.43373 91.6545 5.49315C92.7701 4.0277 94.3121 2.94363 96.0686 2.38986C97.4127 2.01736 98.8497 2.19378 100.064 2.88032C100.846 3.261 101.5 3.86238 101.945 4.61032C102.488 5.48492 102.766 6.49738 102.748 7.52635Z" fill="#ED1C24"/>
<path d="M93.6161 14.4463L93.1792 15.017L90.5039 18.5038L90.4415 18.6019C89.4095 16.8583 88.0354 15.3416 86.4019 14.1431L89.5051 11.1914L89.844 10.8704C90.5725 10.944 91.2689 11.2076 91.8636 11.6348C92.4583 12.0621 92.9304 12.6379 93.2327 13.3048C93.4073 13.668 93.5361 14.0514 93.6161 14.4463Z" fill="#CCCCCC"/>
<g style="mix-blend-mode:multiply" opacity="0.5">
<path d="M101.651 8.29327C102.054 8.0961 102.424 7.83737 102.748 7.52637C102.708 7.84084 102.593 8.14092 102.411 8.40048C102.229 8.66005 101.986 8.87121 101.704 9.01559C101.323 9.21113 100.986 9.48306 100.715 9.81445C100.443 10.1458 100.243 10.5296 100.126 10.9418C100.272 10.7949 100.458 10.6947 100.661 10.6541C100.864 10.6134 101.075 10.6341 101.266 10.7135C101.457 10.7928 101.621 10.9273 101.735 11.0998C101.85 11.2722 101.91 11.4749 101.909 11.6819C101.858 12.0904 101.662 12.4669 101.357 12.7431C100.315 13.6976 99.0374 14.3565 97.6558 14.6515C96.6825 14.9496 95.6761 15.1263 94.6595 15.1776C94.1495 15.1874 93.6402 15.1335 93.1435 15.0171L90.4683 18.5038C90.6347 18.188 90.8318 17.8893 91.0568 17.6121C91.3243 17.2019 91.574 16.7738 91.8059 16.3369C92.0377 15.8999 92.3142 15.3559 92.5728 14.8209C92.8314 14.2858 93.0365 13.7597 93.197 13.3049C94.4276 13.1801 95.4799 13.6616 96.6927 13.4387C97.3044 13.3705 97.8857 13.1358 98.3732 12.7599C98.8607 12.3841 99.2356 11.8817 99.4571 11.3074C99.5217 10.8239 99.614 10.3446 99.7336 9.87167C100.171 9.13993 100.849 8.58222 101.651 8.29327Z" fill="#9E1822"/>
</g>
<g style="mix-blend-mode:multiply" opacity="0.5">
<path d="M103.292 6.49194C103.276 6.66592 103.228 6.83537 103.149 6.99132C103.177 6.8198 103.224 6.65217 103.292 6.49194Z" fill="#9E1822"/>
</g>
<g style="mix-blend-mode:multiply" opacity="0.5">
<path d="M115.633 9.29209C115.839 9.31721 116.047 9.28561 116.236 9.20072C116.424 9.11583 116.586 8.98089 116.704 8.81054C115.864 8.49831 115.118 7.97644 114.537 7.29456C114.247 6.95381 114.036 6.55337 113.919 6.12178C113.802 5.6902 113.781 5.23808 113.859 4.79766C113.946 4.36681 114.163 3.97284 114.48 3.66846C114.797 3.36408 115.199 3.1638 115.633 3.09441C115.211 2.91387 114.756 2.8208 114.296 2.8208C113.836 2.8208 113.381 2.91387 112.958 3.09441C111.79 3.59379 110.479 4.96709 110.64 6.34039C110.671 6.55497 110.757 6.7581 110.888 6.93108C111.019 7.10406 111.191 7.24132 111.389 7.33023C111.977 7.69585 112.494 8.14173 113.083 8.50735C113.845 8.99792 114.727 9.2694 115.633 9.29209Z" fill="#9E1822"/>
</g>
<path d="M41.7161 101.517C41.1101 102.798 40.4251 104.04 39.6651 105.236C39.1402 105.948 38.7476 106.748 38.5058 107.599C38.3896 108.026 38.403 108.478 38.5443 108.897C38.6856 109.316 38.9485 109.684 39.2995 109.953C39.867 110.245 40.4912 110.409 41.1287 110.436C41.7662 110.462 42.4018 110.349 42.9913 110.105C44.1746 109.6 45.4187 109.252 46.6921 109.07C48.4756 108.999 50.1967 110.033 51.9891 110.435C53.4753 110.767 55.0268 110.652 56.4479 110.105C56.89 109.956 57.2926 109.709 57.625 109.382C57.7876 109.214 57.9043 109.007 57.9636 108.78C58.0229 108.554 58.023 108.316 57.9638 108.089C57.3307 106.101 54.6198 105.414 52.5509 105.111C51.4986 104.959 50.4374 104.968 49.3763 104.906C48.903 104.905 48.4331 104.827 47.9851 104.674C47.7639 104.594 47.5626 104.468 47.3948 104.303C47.2271 104.138 47.0969 103.939 47.0131 103.72C46.9566 103.517 46.9424 103.304 46.9716 103.096C47.0007 102.887 47.0725 102.687 47.1826 102.507C45.3008 102.876 43.3489 102.523 41.7161 101.517Z" fill="white"/>
<path d="M60.9245 86.2058C60.2764 87.2737 59.5236 88.2744 58.6773 89.1932L47.361 102.204C47.2825 102.293 47.2165 102.392 47.1648 102.498C45.2898 102.865 43.3453 102.515 41.7162 101.517C42.2871 100.335 42.7874 99.1202 43.2143 97.8789C43.4819 97.1031 43.7226 96.3272 43.9366 95.5425C44.6946 92.7335 45.1494 89.6034 46.8884 87.2938C48.4575 87.6495 50.0817 87.6892 51.6664 87.4105C53.251 87.1319 54.7643 86.5405 56.118 85.6708C58.2042 84.2811 59.6637 82.1302 60.1844 79.6782C60.6632 80.017 61.0599 80.4589 61.3454 80.9712C61.6309 81.4836 61.7979 82.0534 61.8341 82.6388C61.8856 83.8911 61.5694 85.1311 60.9245 86.2058Z" fill="#FFB07B"/>
<g style="mix-blend-mode:multiply" opacity="0.5">
<path d="M56.118 85.6619C54.9855 87.588 52.6134 88.7741 50.6337 90.0315C48.6544 91.2866 46.8849 92.8454 45.3902 94.6507C44.7243 95.7627 43.9979 96.8374 43.2144 97.87C43.4819 97.0941 43.7227 96.3183 43.9367 95.5336C44.6947 92.7245 45.1495 89.5945 46.8884 87.2849C48.4575 87.6406 50.0818 87.6802 51.6664 87.4016C53.2511 87.1229 54.7643 86.5315 56.118 85.6619Z" fill="#E5935C"/>
</g>
<path d="M5.43077 144.66C4.86599 145.367 4.27149 146.063 3.64726 146.747C2.98737 147.496 2.11345 148.049 1.40005 148.753C0.62767 149.407 0.128182 150.326 0 151.33C0.0192923 151.864 0.147975 152.387 0.378072 152.869C0.60817 153.351 0.934775 153.78 1.33763 154.13C2.07778 154.888 2.96953 155.477 3.70969 156.235C5.43969 158.018 6.34036 160.542 8.43597 161.817C10.059 162.798 12.0743 162.798 13.9559 162.602C14.6069 162.531 15.3738 162.334 15.57 161.71C15.6038 161.431 15.5677 161.148 15.465 160.887C15.3622 160.625 15.1961 160.393 14.9814 160.212C13.8935 158.999 12.6094 157.974 11.4144 156.823C10.1985 155.724 9.26559 154.347 8.69458 152.811C8.42107 152.039 8.34551 151.211 8.47482 150.402C8.60412 149.594 8.93416 148.83 9.43474 148.182C9.5685 148.022 9.70226 147.879 9.83602 147.728C8.08943 147.178 6.55245 146.107 5.43077 144.66Z" fill="white"/>
<path d="M35.5363 112.334C35.4846 113.499 35.3655 114.66 35.1796 115.812C34.7948 118.46 33.8493 120.996 32.4063 123.249C29.8726 126.81 27.0158 130.129 23.8722 133.165C19.1638 137.99 14.3216 142.68 9.87172 147.737C8.10447 147.194 6.54749 146.12 5.41296 144.66C6.87472 142.838 8.16717 140.885 9.27425 138.828C10.4335 136.634 11.3164 134.298 12.2795 132.015C12.9129 130.487 13.6365 128.998 14.4464 127.556C16.5064 123.945 20.0734 120.244 24.1843 119.682C24.9159 118.343 25.0921 116.771 24.6748 115.304C24.6035 115 24.5143 114.706 24.4251 114.412C25.6468 114.082 26.8863 113.725 28.108 113.404C30.5142 112.667 33.0199 112.306 35.5363 112.334Z" fill="#FFB07B"/>
<g style="mix-blend-mode:multiply" opacity="0.5">
<path d="M28.1794 114.893C28.0562 115.362 27.8575 115.808 27.5908 116.213C27.3233 117.598 26.6783 118.882 25.727 119.923C24.3548 121.327 22.8327 122.577 21.188 123.65C17.8839 126.076 14.8891 128.897 12.2705 132.051C12.904 130.523 13.6276 129.034 14.4375 127.592C16.4974 123.98 20.0644 120.279 24.1754 119.718C24.907 118.379 25.0831 116.806 24.6659 115.339C24.5945 115.036 24.5053 114.742 24.4162 114.447C25.6379 114.117 26.8774 113.761 28.0991 113.44C28.2557 113.908 28.2834 114.41 28.1794 114.893Z" fill="#E5935C"/>
</g>
<path d="M86.491 17.2555L86.4375 17.4516C85.6884 20.2072 82.4513 23.2837 79.7048 21.9907C78.9913 21.6607 78.7595 21.3754 78.9557 20.3944C77.6448 21.0097 75.2906 21.7321 73.9262 21.2327C73.5929 21.1057 73.2893 20.9115 73.0344 20.662C72.4971 20.1771 72.1388 19.5252 72.0175 18.8117C71.8961 18.0982 72.0188 17.3646 72.3656 16.7293C73.623 14.9458 75.6116 14.0095 77.511 13.1623C78.9883 12.3747 80.6193 11.9183 82.2908 11.8247C83.147 11.8121 83.988 12.0513 84.7094 12.5127C85.4307 12.974 86.0006 13.6372 86.3483 14.4197C86.6782 15.3295 86.7279 16.3172 86.491 17.2555Z" fill="#0071BC"/>
<g style="mix-blend-mode:multiply" opacity="0.5">
<path d="M86.4912 17.2554L86.4377 17.4516C85.6886 20.2071 82.4516 23.2837 79.705 21.9906C78.9916 21.6607 78.7597 21.3753 78.9559 20.3944C77.645 21.0097 75.2908 21.732 73.9264 21.2326C73.5931 21.1057 73.2895 20.9114 73.0347 20.6619C73.0468 20.484 73.0767 20.3077 73.1238 20.1358C73.2576 19.6275 73.5876 18.4504 74.1583 18.3077C74.4169 18.2542 74.7914 19.0122 75.05 19.0122C75.6893 19.0969 76.3369 19.0969 76.9762 19.0122L77.538 18.8338C78.0909 18.5752 78.0552 17.2197 78.6973 16.3012C78.9024 16.0159 79.0897 15.8197 79.268 15.784C80.6681 15.5165 82.1573 17.193 83.5038 16.6758C83.7446 18.602 83.049 18.8606 82.6121 19.0657C82.5143 19.0976 82.4214 19.1426 82.3356 19.1994C82.2733 19.249 82.2293 19.3181 82.2108 19.3956C82.0681 19.9931 81.9344 20.0912 82.4783 20.3855C82.7268 20.4911 82.9974 20.5342 83.2664 20.5108C83.5353 20.4875 83.7945 20.3985 84.0211 20.2517C85.1515 19.5517 86.0197 18.4986 86.4912 17.2554Z" fill="#023B5B"/>
</g>
<path d="M80.7482 19.476C81.3551 19.5467 81.9699 19.4575 82.5317 19.2174C82.8026 19.0906 83.0182 18.8696 83.138 18.5955C83.2578 18.3214 83.2737 18.0131 83.1827 17.7281C82.9508 17.2287 82.3355 17.0593 81.7915 16.9434L79.6246 16.4975C78.8944 16.2792 78.1164 16.2792 77.3863 16.4975C77.1089 16.5956 76.8564 16.7535 76.6468 16.96C76.4373 17.1665 76.2757 17.4165 76.1735 17.6925C76.0486 18.0759 75.8346 18.932 76.2448 19.0747C76.7282 19.1965 77.2277 19.2416 77.7251 19.2084C78.8933 19.2441 79.58 19.4135 80.7482 19.476Z" fill="#0071BC"/>
<path d="M74.2741 20.0733C73.1326 21.0186 72.0625 22.0352 71.0014 23.0785C69.7351 24.3002 68.4955 25.5576 67.1936 26.7436C64.8576 28.9866 62.061 30.6938 58.9984 31.7463C56.2193 35.3304 52.3961 37.9634 48.0566 39.2816C46.5162 41.1449 44.6635 42.726 42.5812 43.9544C41.9775 43.7764 41.3969 43.528 40.8512 43.2143C39.8126 42.6091 38.9301 41.7692 38.2741 40.7619C37.2842 39.237 36.1517 37.0344 37.1594 35.5274C38.1542 33.9754 39.5487 32.7199 41.1963 31.893C42.8439 31.066 44.6838 30.6981 46.5228 30.8278C49.5268 28.2794 53.1399 26.5528 57.0098 25.8162C61.8733 22.1352 67.2915 19.2515 73.0613 17.2732C73.5039 17.581 73.8518 18.0061 74.0661 18.5007C74.2803 18.9954 74.3523 19.54 74.2741 20.0733Z" fill="#FFB07B"/>
<path d="M74.8537 20.9652L70.716 23.3462C70.716 23.15 70.716 22.9449 70.716 22.7576C70.7289 21.9998 70.544 21.2517 70.1797 20.5871C69.8153 19.9225 69.284 19.3643 68.6382 18.9677L72.9275 16.5421C73.8193 16.1676 74.7824 17.6479 75.148 19.0122C75.3531 19.8862 75.3352 20.7066 74.8537 20.9652Z" fill="#CCCCCC"/>
<g style="mix-blend-mode:multiply" opacity="0.5">
<path d="M74.8538 20.9651L70.7161 23.3461C70.7161 23.1499 70.7161 22.9448 70.7161 22.7576C71.8218 21.8658 73.0257 21.304 73.9531 20.1536C74.2652 19.7613 74.7379 19.4402 75.0589 19.0835C75.0819 19.0524 75.1127 19.0278 75.1481 19.0122C75.3532 19.8861 75.3353 20.7065 74.8538 20.9651Z" fill="#023B5B"/>
</g>
<g style="mix-blend-mode:multiply" opacity="0.5">
<path d="M71.0459 22.7307C71.0459 22.8466 71.0459 22.9626 70.9746 23.0785C69.7083 24.3002 68.4688 25.5576 67.1668 26.7436C64.8309 28.9866 62.0343 30.6938 58.9716 31.7463C56.1925 35.3304 52.3693 37.9634 48.0298 39.2816C46.4894 41.1449 44.6367 42.726 42.5545 43.9544C41.9508 43.7764 41.3701 43.528 40.8245 43.2143C40.9986 40.715 41.7071 38.2822 42.9022 36.0802C44.1442 33.8522 45.7611 31.8551 47.682 30.1768C48.1636 29.7399 49.8222 27.894 49.9471 29.0265C49.8445 29.7384 49.6682 30.4377 49.421 31.1132C49.3052 31.7819 49.2426 32.4588 49.2337 33.1375C49.1655 33.8211 49.3495 34.5061 49.7509 35.0636C50.0873 35.3704 50.5103 35.5659 50.962 35.6234C51.4136 35.6808 51.872 35.5975 52.2746 35.3847C53.0721 34.9449 53.8019 34.3922 54.4415 33.7438C58.1869 30.4533 63.466 29.2851 67.1133 25.8875C68.3707 24.7104 69.4586 23.2568 71.0459 22.7307Z" fill="#E5935C"/>
</g>
<path d="M60.1844 79.6693C60.1844 79.7585 60.1844 79.8387 60.122 79.919C58.7576 85.5103 52.988 88.5333 46.8884 87.2849C45.4705 87.2314 39.9684 85.0109 37.4002 87.2849C36.6115 88.0404 36.0836 89.0273 35.8931 90.1028C35.7002 91.1704 35.6225 92.2557 35.6612 93.3399C35.6612 95.0609 35.6612 96.7909 35.6612 98.5209C35.6612 101.669 35.6077 104.817 35.6077 107.929C35.6077 109.409 35.6077 110.881 35.5453 112.343C32.1015 113.531 28.5364 114.332 24.9156 114.733C23.7321 114.881 22.5412 114.961 21.3486 114.974C20.4569 104.077 18.4148 91.3423 17.7816 88.8187C17.1565 86.0628 17.091 83.2094 17.5888 80.4277C18.0866 77.646 19.1377 74.9925 20.6798 72.6245L25.745 72.2232L33.6459 71.59L38.2652 71.2155L38.4703 70.9836C41.9998 71.2719 45.4659 72.0896 48.7522 73.4092L49.5369 73.7392C53.1039 75.2908 56.5639 77.645 59.9704 79.5445C60.0452 79.5799 60.1167 79.6217 60.1844 79.6693Z" fill="#0071BC"/>
<g style="mix-blend-mode:multiply" opacity="0.5">
<path d="M23.2302 79.3033C21.9677 82.2309 21.3008 85.3806 21.2684 88.5686C21.2872 92.0981 21.6155 95.6191 22.2493 99.0913C23.0578 104.311 23.9496 109.522 24.9245 114.724C23.7411 114.871 22.5501 114.952 21.3575 114.964C20.4658 104.067 18.4237 91.333 17.7905 88.8094C17.1654 86.0535 17.0999 83.2001 17.5977 80.4184C18.0955 77.6367 19.1466 74.9832 20.6887 72.6152L25.7539 72.2139C25.5131 74.7643 24.2111 77.0382 23.2302 79.3033Z" fill="#023B5B"/>
</g>
<g style="mix-blend-mode:multiply" opacity="0.5">
<path d="M60.122 79.9275C58.7576 85.5099 52.988 88.5329 46.8884 87.2844C45.4705 87.2309 39.9684 85.0105 37.4002 87.2844C36.6115 88.04 36.0836 89.0269 35.8931 90.1024C35.7002 91.17 35.6225 92.2552 35.6612 93.3394C35.6612 95.0605 35.6612 96.7905 35.6612 98.5205C34.7311 94.0301 33.0068 89.7419 30.5693 85.8576C32.5184 86.001 34.4684 85.5907 36.1944 84.674C37.9204 83.7573 39.3524 82.3716 40.3251 80.6766C40.6257 81.698 41.1736 82.6295 41.9202 83.3886C42.6669 84.1476 43.5892 84.7109 44.6055 85.0283C46.639 85.6304 48.7995 85.6582 50.8478 85.1086C54.3655 84.2896 57.5803 82.4936 60.122 79.9275Z" fill="#023B5B"/>
</g>
<g style="mix-blend-mode:multiply" opacity="0.5">
<path d="M48.7521 73.4091C45.102 73.1487 41.4403 73.0892 37.7836 73.2307C35.8841 73.2932 34.707 73.2307 33.6904 71.581L38.3097 71.2065L38.5148 70.9746C42.0297 71.2701 45.4805 72.0907 48.7521 73.4091Z" fill="#023B5B"/>
</g>
<path d="M40.1467 68.8433C39.6562 70.1452 39.3263 71.0102 39.2549 71.1529C39.0231 71.9555 37.4714 72.8294 35.3491 73.5517C31.9887 74.6908 28.4537 75.2281 24.9067 75.139C22.4454 74.9874 20.6708 74.2473 20.7154 72.6154C20.7154 71.5096 20.7154 71.7236 20.7154 70.7694C21.8114 71.4665 23.0174 71.973 24.2824 72.2676C26.83 72.8182 29.4725 72.7478 31.9872 72.0625C34.8272 71.3232 37.567 70.2423 40.1467 68.8433Z" fill="#E6E6E6"/>
<g style="mix-blend-mode:multiply" opacity="0.5">
<path d="M24.9334 75.1391C22.4722 74.9875 20.6976 74.2474 20.7422 72.6155C20.7422 71.5097 20.7422 71.7237 20.7422 70.7695C21.8381 71.4666 23.0442 71.9731 24.3092 72.2677C24.7194 73.1694 24.9322 74.1484 24.9334 75.1391Z" fill="#E5935C"/>
</g>
<g style="mix-blend-mode:multiply" opacity="0.5">
<path d="M40.1467 68.8433C39.6562 70.1452 39.3263 71.0102 39.2549 71.1529C39.0231 71.9555 37.4714 72.8294 35.3491 73.5517C35.2282 73.5304 35.109 73.5006 34.9924 73.4625C33.9538 73.1186 32.9575 72.6578 32.0228 72.0892C34.8518 71.3388 37.5795 70.2489 40.1467 68.8433Z" fill="#E5935C"/>
</g>
<path d="M45.5507 52.1674C45.5507 52.3725 45.4704 52.5686 45.4259 52.7737C44.4182 57.4198 41.5824 65.0353 40.1467 68.8253C37.6078 70.2069 34.9137 71.2816 32.1209 72.0267C29.5877 72.7263 26.9229 72.8028 24.3538 72.2496C23.0888 71.955 21.8827 71.4485 20.7868 70.7515V70.5285C20.7422 68.1475 20.6976 65.7577 20.6619 63.3945C20.5995 59.8275 20.5371 56.2605 21.4021 52.8629C21.4021 52.7916 21.4021 52.7202 21.4021 52.6489C22.4837 48.8497 24.4485 45.3601 27.136 42.4651C29.8252 39.5909 32.8386 37.0383 36.116 34.8584C37.3912 33.9667 38.8626 33.0749 40.3875 33.396C41.2135 33.5927 41.9562 34.0452 42.5098 34.689C42.8374 35.0321 43.1356 35.402 43.4016 35.7948C44.6295 37.6881 45.4579 39.8123 45.8361 42.037C46.3775 45.4018 46.2807 48.8384 45.5507 52.1674Z" fill="#FFB07B"/>
<g style="mix-blend-mode:multiply" opacity="0.5">
<path d="M45.5507 52.1677C45.5507 52.3728 45.4705 52.569 45.4259 52.7741C44.4182 57.4201 41.5824 65.0357 40.1467 68.8256C37.6079 70.2072 34.9137 71.2819 32.1209 72.027C30.2143 71.0871 28.7468 69.4439 28.0278 67.4434C27.2928 65.2997 26.8197 63.075 26.6188 60.8177C26.4508 59.4643 26.1795 58.1257 25.8073 56.8137C25.4302 56.0431 25.2465 55.1922 25.2723 54.3347C25.6379 52.4887 28.2686 50.7676 29.731 49.8759C30.5201 49.3429 31.4542 49.0658 32.4063 49.0822C33.0898 49.223 33.7307 49.5223 34.2774 49.956C34.8242 50.3897 35.2615 50.9456 35.5542 51.5791C36.1232 52.835 36.7664 54.0559 37.4804 55.2353C37.7503 55.6677 38.119 56.0297 38.5562 56.2917C38.9934 56.5537 39.4866 56.7082 39.9951 56.7424C41.0277 56.5995 41.9677 56.0705 42.6258 55.2621C43.6424 54.2544 44.6233 53.2289 45.5507 52.1677Z" fill="#E5935C"/>
</g>
<path d="M24.8443 50.8122C24.4268 52.4166 24.4862 54.1079 25.0152 55.6791C25.5442 57.2503 26.5199 58.6331 27.8227 59.6583C28.3517 61.8948 29.3265 64.0015 30.6887 65.8525C32.0508 67.7034 33.7724 69.2606 35.7504 70.4307C36.5596 70.9528 37.4722 71.2936 38.4256 71.4295C38.9066 71.4872 39.3943 71.4282 39.8476 71.2575C40.3008 71.0867 40.7063 70.8092 41.0296 70.4485C42.9112 68.1032 45.4081 66.4 47.0935 63.912C48.7789 61.424 50.2681 58.7933 52.1051 56.4124C51.6592 55.883 51.1038 55.4567 50.4772 55.1626C49.8507 54.8686 49.1678 54.7139 48.4757 54.7091C45.5151 57.5449 42.3939 60.4252 39.4333 63.261C39.56 61.8025 39.2129 60.3421 38.4435 59.0965C37.6914 57.8558 36.5548 56.8945 35.2064 56.3589C35.4661 54.6371 35.2787 52.8776 34.6624 51.2491C34.3497 49.997 33.6658 48.8687 32.7006 48.0121C32.0501 47.5285 31.2873 47.2183 30.4839 47.1107C29.6805 47.0031 28.8629 47.1015 28.1081 47.3967C27.3416 47.6829 26.6499 48.1388 26.0846 48.7303C25.5194 49.3218 25.0954 50.0335 24.8443 50.8122Z" fill="#FFB07B"/>
<path d="M58.1512 51.7752C57.8377 52.8842 57.2452 53.8943 56.4301 54.709C54.504 56.876 52.9791 57.7053 51.7039 57.8302C51.2095 57.8915 50.7077 57.8459 50.2325 57.6964L50.063 57.634C49.2925 57.1954 48.6333 56.5851 48.1368 55.8505C47.9227 55.5882 47.7233 55.3143 47.5394 55.0301C46.7562 53.9117 46.2909 52.6019 46.1928 51.2401C46.1298 50.3915 46.301 49.5418 46.6879 48.7838C47.0747 48.0259 47.6623 47.3887 48.3865 46.9419C48.6762 46.7525 49.0243 46.6733 49.3675 46.7189C49.4842 46.7424 49.594 46.7924 49.6883 46.865C49.7827 46.9377 49.859 47.0311 49.9114 47.1381C49.9154 47.1885 49.9154 47.2392 49.9114 47.2897C49.9296 46.7012 50.0831 46.1248 50.3599 45.6052C50.6367 45.0856 51.0294 44.6368 51.5077 44.2934C52.0276 43.9304 52.6426 43.7276 53.2765 43.7102C53.9104 43.6928 54.5355 43.8614 55.0747 44.1953C55.8058 44.7691 56.3897 45.5089 56.7779 46.3533C57.5213 47.5898 58.0179 48.9586 58.2404 50.384C58.2819 50.8496 58.2518 51.3187 58.1512 51.7752Z" fill="#0071BC"/>
<path d="M52.2657 57.2058L51.7039 57.83L49.3318 60.5052C49.3702 60.1644 49.2812 59.8214 49.0821 59.5422C48.3866 58.374 46.505 57.072 45.8718 57.2147L47.5394 55.0031L48.0566 54.3076C48.8681 53.7101 50.616 54.6375 51.6236 55.6809C52.1141 56.2159 52.4173 56.7956 52.2657 57.2058Z" fill="#CCCCCC"/>
<g style="mix-blend-mode:multiply" opacity="0.5">
<path d="M58.1513 51.7753C57.8378 52.8843 57.2452 53.8944 56.4302 54.7091C54.504 56.8761 52.9791 57.7054 51.7039 57.8303L49.3318 60.5055C49.3702 60.1647 49.2813 59.8217 49.0822 59.5424C49.3688 58.8893 49.6964 58.2549 50.0631 57.643C50.6606 56.6175 51.3026 55.7257 51.5969 55.6811C53.2164 55.384 54.6961 54.5706 55.8149 53.3626C56.7516 52.4914 57.5674 51.4987 58.2404 50.4109C58.2792 50.8676 58.2492 51.3275 58.1513 51.7753Z" fill="#023B5B"/>
</g>
<g style="mix-blend-mode:multiply" opacity="0.5">
<path d="M49.9114 47.1202C49.9114 47.5125 49.7152 47.6552 49.4923 48.0119C48.9818 48.7826 48.6022 49.6322 48.3687 50.5267C48.1863 50.1579 48.0914 49.752 48.0914 49.3406C48.0914 48.9292 48.1863 48.5234 48.3687 48.1546C48.6102 47.7381 48.8845 47.3415 49.1891 46.9686C49.2507 46.8858 49.3073 46.7995 49.3585 46.71C49.4761 46.7312 49.5871 46.7792 49.683 46.8504C49.7789 46.9215 49.8571 47.0139 49.9114 47.1202Z" fill="#023B5B"/>
</g>
<g style="mix-blend-mode:multiply" opacity="0.5">
<path d="M45.8005 41.9927C45.5723 41.8772 45.3595 41.7334 45.1673 41.5646C44.2934 40.878 42.715 40.878 41.7162 40.3964C40.7175 39.9149 40.3162 39.1569 39.3531 38.6932C37.3199 37.7122 40.8423 35.4204 41.8589 34.9389C42.07 34.8411 42.2875 34.7577 42.5099 34.6892C42.8374 35.0323 43.1357 35.4022 43.4016 35.795C44.6114 37.6778 45.4274 39.786 45.8005 41.9927Z" fill="#E5935C"/>
</g>
<path d="M36.4638 31.9605C35.6901 30.1699 35.3833 28.2124 35.5721 26.2711C35.7862 24.3247 36.6836 22.5174 38.1046 21.1703C38.8166 20.5134 39.667 20.0249 40.5932 19.7409C41.5193 19.4569 42.4973 19.3846 43.4551 19.5294C45.0871 19.8237 46.8884 20.0021 48.2795 20.9027C48.9858 21.4064 49.5857 22.0446 50.0448 22.7807C50.5039 23.5167 50.8131 24.3362 50.9548 25.1921C51.241 26.9143 51.1033 28.6804 50.5535 30.3375C50.0011 31.9867 49.3089 33.5857 48.4846 35.1173C48.1069 35.9958 47.5617 36.7924 46.8795 37.4626C46.53 37.7962 46.0916 38.0216 45.6169 38.1118C45.1423 38.202 44.6517 38.1531 44.2042 37.9709C43.6246 39.1212 42.9468 40.2894 42.3672 41.4398C40.6986 41.3765 39.0688 40.9183 37.6117 40.1029C36.1545 39.2875 34.9115 38.1382 33.9847 36.7492C34.9108 35.1976 35.7561 33.5992 36.5173 31.9605C36.4816 32.014 36.4906 31.9605 36.4638 31.9605Z" fill="#FFB07B"/>
<path d="M35.5453 32.219C36.3004 33.3709 37.4319 34.225 38.7467 34.6356C40.0585 35.0371 41.4158 35.2708 42.7863 35.3312C43.3326 35.4166 43.8913 35.3739 44.4182 35.2063C44.9803 34.943 45.4363 34.4965 45.7113 33.9401C46.0144 33.405 46.2374 32.8254 46.603 32.2992C46.9686 31.7731 47.5661 31.0865 48.0209 30.4533C48.5244 29.8528 48.788 29.0874 48.761 28.3042C48.7722 27.8257 48.907 27.3582 49.1523 26.9472C49.3977 26.5362 49.7452 26.1958 50.1611 25.9589C50.5594 25.7452 50.9135 25.4577 51.2044 25.1117C51.3433 24.835 51.4156 24.5296 51.4156 24.22C51.4156 23.9103 51.3433 23.605 51.2044 23.3282C50.7029 22.1572 49.8447 21.1742 48.7521 20.5192C47.664 19.8351 46.452 19.3715 45.1851 19.1548C43.4746 18.7815 41.6986 18.8335 40.013 19.3064C38.3207 19.7951 36.879 20.9115 35.9822 22.4275C35.3687 23.7385 35.0346 25.1628 35.0013 26.6099C34.8319 28.4825 34.6089 30.6138 35.5453 32.219Z" fill="black"/>
<path d="M47.5215 30.8546C47.446 30.6705 47.311 30.5169 47.1381 30.4183C46.9652 30.3197 46.7643 30.2818 46.5674 30.3107C46.3972 30.3746 46.2429 30.4747 46.1151 30.604C45.9873 30.7333 45.8891 30.8888 45.8272 31.0597C45.3771 31.9606 45.1624 32.9607 45.203 33.9669C45.1995 34.1843 45.242 34.4001 45.3278 34.6C45.3701 34.6996 45.4376 34.7864 45.5235 34.8521C45.6095 34.9178 45.7111 34.96 45.8183 34.9745C45.9711 34.9672 46.1194 34.9207 46.249 34.8395C46.3786 34.7583 46.4852 34.6451 46.5584 34.5108C47.1916 33.6547 48.0209 31.9604 47.5215 30.8546Z" fill="#FFB07B"/>
<g style="mix-blend-mode:multiply" opacity="0.5">
<path d="M20.7689 70.7694V70.5465C20.7243 68.1655 20.6798 65.7756 20.6441 63.4124C20.5817 59.8454 20.5192 56.2784 21.3842 52.8809C21.5091 53.9153 21.7053 54.923 21.8836 55.8058C22.7754 60.4518 21.5626 67.0686 24.1933 72.0268C24.2378 72.116 24.2824 72.1962 24.3181 72.2854C23.0582 71.9834 21.8583 71.4708 20.7689 70.7694Z" fill="#E5935C"/>
</g>
</svg>
