<svg width="255" height="280" viewBox="0 0 255 280" fill="none" xmlns="http://www.w3.org/2000/svg">
<path d="M170.408 67.6152C170.408 67.6152 176.11 71.1885 177.674 71.9925C182.803 74.8459 187.623 78.2238 192.056 82.072C197.713 87.1638 217.664 106.519 219.004 108.335C221.391 111.531 223.584 114.867 225.57 118.325C226.171 119.918 226.547 121.587 226.687 123.283C226.687 123.983 223.917 126.901 223.158 128.36C222.964 128.941 222.622 131.144 221.446 131.338C220.455 131.522 219.435 131.471 218.468 131.189C218.215 130.906 216.592 128.211 216.592 128.211C215.708 127.991 214.849 127.676 214.031 127.273C213.62 126.996 213.274 126.633 213.017 126.209C212.76 125.785 212.598 125.31 212.542 124.817C212.468 123.73 212.662 118.325 212.542 116.971C212.423 115.616 208.686 111.953 200.721 106.102C192.756 100.251 184.775 97.5114 177.138 91.8388C171.182 87.3723 168.13 85.4666 168.13 85.4666C163.41 84.469 154.805 81.5658 154.805 81.5658L157.678 63.1636C157.678 63.1636 164.721 65.3373 170.408 67.6152Z" fill="#FFCFC4"/>
<path d="M76.8783 90.32C76.8783 90.32 70.9229 92.6277 69.434 93.2977C64.3936 95.5687 59.1291 97.3053 53.7267 98.4789C46.7142 99.9678 20.9719 104.122 18.8131 104.122C15.0567 104.133 11.3031 103.919 7.57229 103.481C6.04051 103.041 4.57738 102.389 3.22485 101.546C2.71864 101.114 2.03377 97.4367 1.3489 96.0372C1.03624 95.5608 -0.437724 94.0719 0.128039 93.0595C0.693802 92.0471 1.54245 90.9751 1.89977 90.9305C2.25709 90.8858 5.17524 91.1687 5.17524 91.1687C5.83319 90.5953 6.55215 90.0961 7.31918 89.6798C7.7587 89.5281 8.2259 89.4735 8.68856 89.5198C9.15122 89.566 9.59835 89.7121 9.99912 89.9478C10.8627 90.4987 14.8379 93.6699 15.9545 94.2953C17.0712 94.9206 21.9099 94.191 30.843 91.4516C39.7761 88.7121 46.2526 84.2306 54.8135 81.64C61.5729 79.6003 64.6697 78.4092 64.6697 78.4092C68.0792 75.4315 75.0917 70.5332 75.0917 70.5332L87.3002 83.2033C87.3002 83.2033 81.7766 87.2977 76.8783 90.32Z" fill="#FFCFC4"/>
<path d="M223.783 181.72C223.783 181.72 232.344 182.271 237.183 182.614C240.74 182.923 244.278 183.42 247.783 184.102C250.761 184.549 253.113 184.996 253.56 184.4C254.007 183.805 254.811 179.279 253.56 176.956C252.309 174.633 247.337 168.991 242.706 168.023C238.076 167.055 233.937 167.025 230.662 166.028C227.386 165.03 222.786 162.797 220.85 162.544C219.889 162.501 218.929 162.656 218.03 162.999C217.131 163.342 216.312 163.866 215.624 164.539C214.146 167.236 213.025 170.114 212.289 173.1C212.081 174.708 215.416 181.184 223.783 181.72Z" fill="#4A5061"/>
<path d="M152.557 191.145C152.557 191.145 168.353 201.775 173.401 204.232C178.448 206.689 182.84 206.748 187.143 204.232C191.13 201.684 194.986 198.936 198.696 195.999C198.018 192.592 196.555 189.39 194.423 186.648C192.291 183.905 189.548 181.698 186.413 180.202L183.763 182.123L173.341 169.646L152.557 191.145Z" fill="#FFCFC4"/>
<path d="M70.0446 183.909C70.0446 183.909 65.4589 195.091 65.1313 197.904C64.8038 200.718 63.9403 205.096 66.9924 209.071C70.0445 213.046 74.4367 219.701 74.4367 219.701L92.6304 208.803L89.2358 204.56L93.494 200.182C93.494 200.182 98.8092 193.081 98.8092 192.738C98.8092 192.396 90.1738 184.445 83.2655 182.123C76.3573 179.8 70.0446 183.909 70.0446 183.909Z" fill="#FFCFC4"/>
<path d="M83.7866 156.514C78.9032 167.755 70.0446 183.984 70.0446 183.984C70.0446 183.984 81.9554 184.192 96.2037 195.269L93.4791 200.257C93.4791 200.257 97.4543 201.388 104.765 199.914C105.638 197.263 106.237 194.529 106.551 191.756L127.261 176.286C127.261 176.286 148.969 190.758 149.43 191.175C150.347 192.2 151.169 193.307 151.887 194.48C151.887 194.48 163.44 191.175 169.083 186.053C174.726 180.932 180.577 170.584 180.577 170.584L172.329 164.807L147.107 133.78L143.132 127.035C143.132 127.035 131.445 124.921 114.055 131.829C96.6652 138.738 88.5659 146.212 83.7866 156.514Z" fill="#4A5061"/>
<path d="M104.764 199.84C104.764 199.84 98.6602 195.671 96.2036 195.195L93.479 200.182C93.479 200.182 97.4542 201.314 104.764 199.84Z" fill="#383D4A"/>
<path d="M103.826 162.678L106.551 191.681L127.261 176.212L103.826 162.678Z" fill="#383D4A"/>
<path d="M147.107 133.631L143.132 126.886C143.132 126.886 131.445 124.772 114.055 131.68C96.6651 138.589 88.5657 146.212 83.7865 156.514C83.7865 156.514 116.541 138.872 149.296 136.415L147.107 133.631Z" fill="#383D4A"/>
<path d="M99.6726 45.6694C99.6726 45.6694 83.8163 51.8481 83.1166 52.4437C82.4168 53.0392 63.0022 77.8435 63.0022 77.8435C64.6102 84.1115 65.9799 90.6774 74.1686 95.1588L78.2034 92.2704C78.2034 92.2704 79.856 111.134 80.8982 122.181C81.9404 133.229 83.593 141.894 83.593 141.894C83.593 141.894 82.2084 149.561 82.1042 150.827C81.9999 152.092 83.7866 156.514 83.7866 156.514C83.7866 156.514 112.953 135.402 144.219 130.117L147.107 133.705C147.107 133.705 151.098 128.926 150.398 128.137C149.698 127.348 138.055 110.36 138.055 110.36L142.075 83.8435L163.381 91.5111C168.618 84.2514 172.372 76.0298 174.428 67.3173C174.428 67.3173 143.772 51.2824 141.375 50.4784C138.978 49.6744 115.186 41.8728 114.1 41.6942C113.013 41.5155 103.32 44.2401 99.6726 45.6694Z" fill="#FF9C30"/>
<path d="M103.499 60.4089C108.68 60.4089 115.99 53.8729 117.539 49.3914C119.087 44.91 118.09 43.5998 117.539 42.7363C115.633 42.1258 114.323 41.7387 114.1 41.6941C112.998 41.5005 103.32 44.24 99.6727 45.6693L96.9183 46.7562C96.8164 48.647 96.8512 50.5428 97.0225 52.4287C97.4692 56.3592 98.3178 60.4089 103.499 60.4089Z" fill="#4A5061"/>
<path d="M138.055 110.36C138.055 110.36 123.554 105.283 112.745 95.1887C121.767 99.2384 139.053 103.839 139.053 103.839L138.055 110.36Z" fill="#FA7C28"/>
<path d="M64.0146 81.6697C65.5035 86.6872 67.6474 91.5855 74.1686 95.1587L78.2034 92.2703C78.2034 92.2703 79.6922 69.476 81.1811 60.4089C81.1364 60.4089 70.9229 72.4091 64.0146 81.6697Z" fill="#FA7C28"/>
<path d="M142.075 83.8137C138.909 80.3624 135.979 76.7015 133.306 72.8557C135.107 79.7342 140.601 93.5507 140.601 93.5507L142.075 83.8137Z" fill="#FA7C28"/>
<path d="M98.5559 50.9397C98.5559 50.9397 99.5534 55.6146 99.9405 56.8951C100.328 58.1755 102.74 59.5303 105.628 58.1904C108.516 56.8504 116.05 49.8528 116.05 44.8949C115.977 41.4924 115.664 38.0992 115.112 34.741H98.5559V50.9397Z" fill="#F09A92"/>
<path d="M85.2159 41.5306C87.3003 44.9401 86.0645 46.3396 89.2656 49.3173C91.8848 51.5913 94.7935 53.5087 97.9158 55.0196C99.1813 55.6598 101.965 55.4067 104.675 53.8732C107.385 52.3397 115.097 44.9401 115.499 36.6621C118.596 33.9524 121.455 30.0069 118.387 24.0366C118.268 21.1483 114.114 -0.559182 99.5684 1.70387C85.0223 3.96692 80.6749 10.771 79.856 17.0688C79.4101 22.416 79.9706 27.7994 81.5087 32.94C82.4474 35.9228 83.6896 38.8014 85.2159 41.5306Z" fill="#FFCFC4"/>
<path d="M81.3449 32.225C81.3449 32.225 86.8239 32.8801 88.0447 32.761C89.2656 32.6419 102.933 25.8379 103.946 25.3168C104.249 25.171 104.579 25.087 104.915 25.0696C105.252 25.0522 105.588 25.1017 105.905 25.2152C106.222 25.3288 106.514 25.5041 106.763 25.7311C107.012 25.9581 107.213 26.2322 107.355 26.5376C108.144 28.0265 110.333 27.2672 110.765 28.1902C111.222 29.4564 111.561 30.7623 111.777 32.091C111.777 32.091 113.564 31.1084 113.698 30.7064C113.355 28.9001 113.442 27.0387 113.951 25.2721C114.053 24.7184 114.337 24.2144 114.756 23.8389C115.176 23.4634 115.708 23.2375 116.269 23.1967C116.831 23.1558 117.39 23.3023 117.86 23.6132C118.329 23.9241 118.682 24.3818 118.864 24.9148C119.412 19.4667 118.545 13.9695 116.348 8.95428C113.653 3.20732 104.913 -2.10788 94.1788 0.840048C83.4442 3.78797 79.1414 10.0709 78.3672 17.6045C77.6996 22.6738 78.7479 27.8206 81.3449 32.225Z" fill="#4A5061"/>
<path d="M92.8089 207.939C90.8139 207.612 78.7393 208.937 73.037 219.031C73.037 219.031 102.814 256.61 111.747 266.168C112.549 268.129 114.008 269.751 115.874 270.756C117.739 271.761 119.896 272.086 121.976 271.677C125.757 270.605 128.08 267.493 127.648 266.466C125.702 263.207 123.47 260.128 120.978 257.265C118.789 254.942 111.018 239.279 108.903 234.098C106.789 228.917 101.712 214.579 92.8089 207.939Z" fill="#FF9C30"/>
<path d="M114.859 265.29C114.335 264.757 113.643 264.42 112.901 264.336C112.158 264.252 111.409 264.426 110.779 264.828C109.291 265.766 103.812 270.516 102.62 270.992C101.429 271.469 93.4194 273.791 92.005 274.402C90.5906 275.012 89.5335 275.637 89.2506 277.29C88.9677 278.943 89.3399 280 91.9156 280H130.075C131.117 280 130.79 277.022 130.417 275.206C130.045 273.389 129.747 270.233 129.271 268.952C128.794 267.672 128.348 266.496 127.693 266.466C127.038 266.436 124.953 268.714 121.216 268.282C118.81 268.068 116.557 267.008 114.859 265.29Z" fill="#4A5061"/>
<path d="M198.13 196.49C198.574 196.532 199.022 196.471 199.438 196.311C199.854 196.151 200.227 195.896 200.527 195.567C201.927 194.376 215.178 185.859 220.299 183.82C225.421 181.78 226.255 181.676 226.523 181.274C226.791 180.872 228.667 171.968 219.704 170.852C210.89 171.298 204.681 171.834 201.376 172.341C194.855 173.442 185.654 175.825 185.922 180.634C187.693 180.872 196.85 186.41 198.13 196.49Z" fill="#FF9C30"/>
<path d="M156.249 259.647C156.249 263.672 155.055 267.607 152.819 270.954C150.582 274.301 147.404 276.91 143.685 278.45C139.966 279.991 135.874 280.394 131.926 279.608C127.978 278.823 124.351 276.885 121.505 274.038C118.658 271.192 116.72 267.565 115.935 263.617C115.149 259.669 115.553 255.577 117.093 251.858C118.633 248.139 121.242 244.961 124.589 242.724C127.936 240.488 131.871 239.294 135.896 239.294C141.294 239.294 146.471 241.438 150.288 245.255C154.105 249.072 156.249 254.249 156.249 259.647Z" fill="#9E9EA6"/>
<path d="M149.832 247.692V255.136L154.224 261.091L156.219 258.382C156.025 254.929 154.943 251.586 153.078 248.674L149.832 247.692Z" fill="#3A3A51"/>
<path d="M151.604 272.645V269.28L144.532 271.543L140.184 277.573L143.385 278.645C146.585 277.367 149.412 275.304 151.604 272.645Z" fill="#3A3A51"/>
<path d="M135.896 251.562L128.214 257.145L131.147 266.168H140.646L143.579 257.145L135.896 251.562Z" fill="#3A3A51"/>
<path d="M135.896 245.012L142.954 242.689L140.988 239.89C137.647 239.037 134.145 239.037 130.805 239.89L128.839 242.644L135.896 245.012Z" fill="#3A3A51"/>
<path d="M131.638 277.513L127.306 271.483L120.219 269.22V272.585C122.427 275.228 125.263 277.276 128.467 278.54L131.638 277.513Z" fill="#3A3A51"/>
<path d="M117.583 261.121L122.05 255.166V247.721L118.834 248.734C116.982 251.652 115.901 254.992 115.693 258.441L117.583 261.121Z" fill="#3A3A51"/>
<path d="M149.832 247.334L152.81 248.272C150.144 244.326 146.175 241.443 141.599 240.128L143.43 242.674C145.864 243.767 148.044 245.354 149.832 247.334Z" fill="#F7F7F7"/>
<path d="M122.02 247.334C123.815 245.354 126 243.768 128.437 242.674L130.254 240.128C125.681 241.451 121.715 244.332 119.043 248.272L122.02 247.334Z" fill="#F7F7F7"/>
<path d="M149.564 255.404L143.877 257.22L140.899 266.317L144.368 271.111L151.544 268.818C152.841 266.563 153.657 264.064 153.941 261.478L149.564 255.404Z" fill="#F7F7F7"/>
<path d="M149.445 255.046V247.513C147.693 245.587 145.565 244.042 143.192 242.972L136.03 245.339V251.295L143.787 256.937L149.445 255.046Z" fill="#F7F7F7"/>
<path d="M136.164 278.213C134.744 278.215 133.328 278.075 131.936 277.796L128.958 278.779C133.43 280.407 138.333 280.407 142.805 278.779L139.827 277.796C138.627 278.083 137.398 278.223 136.164 278.213Z" fill="#F7F7F7"/>
<path d="M156.249 259.647C156.249 259.424 156.249 259.201 156.249 258.977L154.403 261.493C154.117 264.143 153.28 266.704 151.946 269.012V272.139C154.729 268.569 156.243 264.174 156.249 259.647Z" fill="#F7F7F7"/>
<path d="M127.35 271.156L130.819 266.377L127.842 257.28L122.214 255.448L117.747 261.523C118.032 264.107 118.843 266.604 120.129 268.863L127.35 271.156Z" fill="#F7F7F7"/>
<path d="M132.04 277.454C134.589 277.977 137.218 277.977 139.767 277.454L144.159 271.32L140.69 266.54H131.117L127.633 271.32L132.04 277.454Z" fill="#F7F7F7"/>
<path d="M115.588 258.977C115.588 259.201 115.588 259.424 115.588 259.647C115.597 264.171 117.105 268.563 119.876 272.139V269.027C118.549 266.712 117.718 264.147 117.435 261.493L115.588 258.977Z" fill="#F7F7F7"/>
<path d="M122.303 247.513V255.046L127.916 256.878L135.658 251.25V245.295L128.497 242.927C126.142 244.02 124.035 245.58 122.303 247.513Z" fill="#F7F7F7"/>
</svg>
