<svg width="136" height="149" viewBox="0 0 136 149" fill="none" xmlns="http://www.w3.org/2000/svg">
<g style="mix-blend-mode:multiply" opacity="0.35">
<path d="M97.6889 148.67C118.848 148.67 136 143.741 136 137.66C136 131.579 118.848 126.649 97.6889 126.649C76.5302 126.649 59.3777 131.579 59.3777 137.66C59.3777 143.741 76.5302 148.67 97.6889 148.67Z" fill="#C9C9C9"/>
</g>
<g style="mix-blend-mode:multiply" opacity="0.35">
<path d="M33.9849 142.304C41.0144 142.304 46.713 140.808 46.713 138.963C46.713 137.117 41.0144 135.621 33.9849 135.621C26.9554 135.621 21.2568 137.117 21.2568 138.963C21.2568 140.808 26.9554 142.304 33.9849 142.304Z" fill="#C9C9C9"/>
</g>
<path d="M47.428 34.2145C51.9491 38.3514 46.2317 39.8952 46.2317 39.8952L58.7526 50.7553L78.8021 49.6359L59.3641 29.0117C59.3641 29.0117 55.6884 31.1402 54.4453 27.5247L47.428 34.2145Z" fill="#FCCFB2"/>
<path d="M65.9939 80.7861C62.1778 95.1549 61.8069 101.444 63.3206 104.441C69.5493 116.775 89.0073 130.128 89.0073 130.128C89.0073 130.128 89.6757 133.493 91.5503 134.238C93.7524 135.11 97.3713 133.289 99.5701 131.782C99.5701 131.782 94.4809 124.915 90.4108 118.302C86.3408 111.689 79.4437 106.553 76.423 102.025C74.3879 98.971 85.4452 87.2421 85.4452 81.6783L65.9939 80.7861Z" fill="#FCCFB2"/>
<path d="M114.497 85.11C110.377 87.1951 105.157 91.9 105.157 91.9L105.094 91.9368C105.595 89.0764 106.648 85.4575 105.912 80.786C105.912 80.786 99.2994 78.243 94.9787 79.1319C90.6581 80.0207 89.3816 82.8076 89.3816 82.8076C89.3816 92.0905 90.2705 105.35 96.2485 106.733C102.227 108.117 107.439 104.936 111.129 101.119C112.485 99.6726 115.175 96.5582 117.143 93.9083C117.839 93.0009 118.477 92.05 119.051 91.0613C122.066 85.5945 120.769 81.9388 114.497 85.11Z" fill="#FCCFB2"/>
<path d="M106.153 84.6355C106.193 83.3476 106.112 82.0589 105.912 80.786C105.912 80.786 99.2994 78.243 94.9787 79.1319C90.6581 80.0207 89.3816 82.8076 89.3816 82.8076C89.3816 83.0282 89.3816 83.2554 89.3816 83.4759C92.653 84.2612 99.4097 85.5076 106.153 84.6355Z" fill="#F7C0A4"/>
<path d="M65.2085 83.7902C69.5525 85.0801 79.6508 86.263 83.9648 86.3332C84.847 84.5755 85.4384 82.9615 85.4384 81.6783L65.9938 80.7861C65.7064 81.832 65.4491 82.8278 65.2085 83.7902Z" fill="#F7C0A4"/>
<path d="M63.4578 83.0715C68.42 85.0765 84.5097 84.7724 85.6525 84.0072L87.0827 78.3699L87.3668 82.9713C87.3668 82.9713 99.373 84.8559 109.769 82.0457C109.769 82.0457 106.427 55.5937 92.9505 49.9966C92.9505 49.9966 85.6859 60.2385 77.0413 60.4925C68.3966 60.7464 73.9804 59.9211 73.9804 59.9211C73.9804 59.9211 68.6138 65.4046 66.1979 71.5097C64.1963 76.6056 63.4578 83.0715 63.4578 83.0715Z" fill="url(#paint0_linear_650_556)"/>
<path d="M105.605 82.9313C104.409 74.1162 101.191 57.6122 91.2728 50.2373C91.1559 50.391 89.9362 53.4953 89.7725 53.7092C98.8682 61.6755 102.995 77.401 103.389 83.232C104.125 83.1485 104.863 83.0483 105.605 82.9313Z" fill="url(#paint1_linear_650_556)"/>
<path d="M45.2994 40.8576C46.3451 39.7077 47.5805 38.7458 48.9517 38.0139C48.9517 38.0139 53.9975 47.9518 58.7025 44.5868C63.4074 41.2218 59.3708 29.0284 59.3708 29.0284L64.2027 27.3777C64.2027 27.3777 66.2076 40.0757 75.1096 40.8442C75.1096 40.8442 83.7576 44.0221 86.1736 50.5081C88.5895 56.9941 68.5467 67.7607 68.5467 67.7607C68.5467 67.7607 62.2546 61.6322 58.1879 59.2162C55.6678 57.6886 53.4352 55.7309 51.5916 53.432C51.5916 53.432 44.6845 47.1899 44.6411 44.5868C44.5977 41.9837 45.2994 40.8576 45.2994 40.8576Z" fill="url(#paint2_linear_650_556)"/>
<path d="M54.4521 27.5413L47.4348 34.2244C48.0706 34.7585 48.5874 35.4198 48.9519 36.1659C51.7154 35.0264 55.2474 32.2863 57.3058 29.6465C56.2399 29.6966 55.0603 29.2989 54.4521 27.5413Z" fill="#F7C0A4"/>
<path d="M38.1217 15.7052C34.2121 25.0249 42.5593 36.6536 44.9051 37.0913C47.9994 37.6694 55.5079 29.9437 56.1094 25.5729C58.0208 11.6819 46.225 11.6318 42.8835 12.1397C37.8243 12.9083 38.1217 15.7052 38.1217 15.7052Z" fill="#FCCFB2"/>
<path d="M72.6771 11.9128C74.1039 2.1621 65.6598 -1.32651 60.8913 0.441187C56.1229 2.20888 55.2708 8.32063 55.2708 8.32063C55.2708 8.32063 52.5541 5.95479 47.4181 7.121C45.8945 7.51786 44.5037 8.31241 43.3881 9.42335C43.3881 9.42335 34.0985 10.9371 37.1327 21.3227C37.1327 21.3227 37.0358 16.1834 39.6021 14.8233C43.1743 15.4683 47.4415 16.3972 51.2141 22.7763C51.2141 22.7763 51.4413 23.0169 52.7078 22.5558C52.5875 23.7186 52.3736 25.7403 52.3736 25.7403C53.203 25.7758 54.0267 25.5889 54.7595 25.1989C55.1279 25.9352 55.3793 26.7244 55.5047 27.538C55.5047 27.538 59.2105 25.1989 59.8153 19.134C60.2798 14.3689 57.3058 10.9371 57.3058 10.9371C60.5939 8.08672 63.4209 10.2688 63.7818 16.6011C64.1427 22.9334 69.2586 24.6008 69.2586 24.6008C69.0551 23.2422 69.1141 21.8571 69.4324 20.5207C70.9361 25.0252 76.0053 25.1154 76.0053 25.1154C76.0053 25.1154 71.2335 21.6636 72.6771 11.9128Z" fill="url(#paint3_linear_650_556)"/>
<path style="mix-blend-mode:multiply" opacity="0.47" d="M58.7761 59.5838C60.1469 60.4935 61.4646 61.4809 62.7225 62.5411C70.338 61.3281 71.3405 52.9341 71.3405 52.9341C69.5627 57.766 63.0767 60.9438 58.7761 59.5838Z" fill="url(#paint4_linear_650_556)"/>
<path d="M105.157 91.9001C105.106 94.662 104.414 97.3743 103.135 99.823C103.135 99.823 107.677 96.6318 107.744 89.5811C106.203 90.8709 105.157 91.9001 105.157 91.9001Z" fill="#F7C0A4"/>
<path d="M3.14885 125.356C7.15875 128.511 10.6908 126.863 15.2053 122.583C22.8742 115.308 31.0778 107.302 38.1018 100.375L34.6967 96.7825C27.4054 103.429 18.9913 111.198 11.3056 118.469C6.70095 122.833 7.1554 118.927 7.25231 116.882C7.34922 114.837 5.7486 111.091 2.36024 114.048C-1.02812 117.006 -0.770819 122.269 3.14885 125.356Z" fill="url(#paint5_linear_650_556)"/>
<path d="M87.2028 47.8579L53.4128 79.897C53.4128 79.897 45.2493 87.1649 34.7 96.782L38.105 100.374C48.2835 90.3461 55.9691 82.5803 55.9691 82.5803L89.7591 50.5379L87.2028 47.8579Z" fill="url(#paint6_linear_650_556)"/>
<g style="mix-blend-mode:screen" opacity="0.15">
<path d="M53.4128 79.8971C53.4128 79.8971 30.9808 99.8664 12.4116 117.423C22.1891 113.62 68.9411 67.8173 88.476 49.2014L87.2028 47.8647L53.4128 79.8971Z" fill="white"/>
</g>
<g style="mix-blend-mode:screen" opacity="0.15">
<path d="M7.25221 116.882C7.34243 114.994 5.98575 111.659 3.10865 113.487C1.07029 117.273 4.97659 121.019 7.33909 119.679C7.10852 118.913 7.21211 117.734 7.25221 116.882Z" fill="white"/>
</g>
<path d="M89.5821 45.3613L92.3666 48.2976C92.4886 48.4262 92.5544 48.598 92.5497 48.7752C92.545 48.9524 92.4701 49.1204 92.3415 49.2424L91.0176 50.4979C90.7759 50.7271 90.4529 50.851 90.1198 50.8422C89.7867 50.8333 89.4707 50.6925 89.2414 50.4507L87.2847 48.3873C87.0554 48.1455 86.9315 47.8225 86.9404 47.4894C86.9492 47.1563 87.09 46.8404 87.3318 46.6111L88.6557 45.3556C88.7843 45.2337 88.9561 45.1678 89.1333 45.1725C89.3105 45.1772 89.4785 45.2521 89.6005 45.3807L89.5821 45.3613Z" fill="url(#paint7_linear_650_556)"/>
<path d="M45.2996 40.8572C40.9322 45.4351 40.5579 53.1909 44.1935 68.4085C45.2562 72.8595 40.2939 85.2367 38.7702 88.6718C37.2464 92.107 40.3808 96.999 41.1861 95.7927C41.7041 95.0108 40.6381 92.8588 41.1861 91.5957C41.6807 90.4462 41.8544 90.3326 43.3849 88.9024C44.6146 87.7562 52.6177 74.2663 51.8357 68.9465C50.8633 62.3268 49.6236 52.9871 52.1699 54.1299C52.1632 54.1299 50.1716 43.8412 45.2996 40.8572Z" fill="#FCCFB2"/>
<path d="M42.8635 95.6996C42.2988 93.16 42.8267 92.3213 43.5318 92.8459C44.2369 93.3705 44.0097 92.7991 44.5811 91.9871C45.1525 91.1751 45.4165 92.3681 45.9177 91.0749C46.2753 90.1593 46.7297 89.9087 47.1842 91.409C47.5551 92.6187 45.8241 93.7682 44.8952 94.627C43.9662 95.4858 42.9805 96.2109 42.8635 95.6996Z" fill="#FCCFB2"/>
<path d="M70.4416 63.617C69.4057 64.7398 68.0357 65.7189 65.4927 67.2092C62.8195 68.7797 62.7059 69.3645 61.5931 72.2383C60.4804 75.112 61.1053 77.127 61.9106 78.1829C62.5522 79.0183 62.9131 77.8488 62.7593 76.5122C62.6991 76.1068 62.7322 75.6931 62.8562 75.3025C65.6431 77.1838 66.1009 75.386 66.1009 75.386C67.7383 75.5665 68.1927 73.8857 68.1927 73.8857C69.9103 74.2198 70.3882 73.1004 70.7424 70.9184C70.9328 69.7321 71.1901 68.489 74.0839 66.7414C75.2769 66.0163 88.6365 56.2388 93.0073 52.8905C97.3781 49.5423 96.9002 47.2099 87.1094 38.0539C77.3186 28.898 69.6864 25.0853 64.2196 27.3609C64.2196 27.3609 64.0859 29.2322 66.8093 35.4976C69.9036 42.6118 75.7915 41.4757 75.7915 41.4757C75.7915 41.4757 84.904 45.6026 83.8848 48.5264C82.8656 51.4503 74.0104 59.9145 74.0104 59.9145" fill="#FCCFB2"/>
<path d="M75.7747 41.4922C72.6771 39.4538 72.1859 36.6001 72.1859 36.6001C71.8815 38.0268 71.7691 39.4877 71.8517 40.9441C73.0865 41.4758 74.4416 41.6651 75.7747 41.4922Z" fill="#F7C0A4"/>
<path d="M55.2576 8.32058C55.795 8.54406 56.2657 8.90219 56.6245 9.36047C56.9833 9.81874 57.218 10.3617 57.306 10.937C57.306 10.937 58.1313 10.0783 57.306 8.64805C56.4806 7.21786 55.2576 8.32058 55.2576 8.32058Z" fill="url(#paint8_linear_650_556)"/>
<g style="mix-blend-mode:screen" opacity="0.15">
<path d="M72.677 11.9128C74.1039 2.1621 65.6597 -1.32651 60.8913 0.441187C56.1229 2.20888 55.2708 8.32063 55.2708 8.32063L56.3233 9.02236C59.8988 2.57311 69.1483 3.18462 72.677 11.9128Z" fill="white"/>
</g>
<path style="mix-blend-mode:multiply" opacity="0.5" d="M43.3747 9.4231C43.3747 9.4231 34.0851 10.9368 37.1193 21.3225C37.1193 21.3225 37.0224 16.1831 39.5887 14.8231C39.9295 11.9493 41.9345 10.4957 43.3747 9.4231Z" fill="url(#paint9_linear_650_556)"/>
<path d="M54.1713 23.7251C53.4696 25.3157 52.0895 26.2446 51.0904 25.8035C50.0913 25.3624 49.8473 23.7184 50.5491 22.1278C51.2508 20.5372 52.6275 19.6082 53.63 20.046C54.6325 20.4837 54.8697 22.1345 54.1713 23.7251Z" fill="#FCCFB2"/>
<g style="mix-blend-mode:multiply" opacity="0.55">
<g style="mix-blend-mode:multiply" opacity="0.5">
<path d="M81.8999 70.738C84.3159 74.4138 85.4587 78.8748 85.6525 84.0074L87.0827 78.3702C86.0435 73.6619 81.8999 70.738 81.8999 70.738Z" fill="#E64A19"/>
</g>
<path d="M87.0828 78.3669L87.1195 78.945L87.0828 78.3669Z" fill="url(#paint10_linear_650_556)"/>
</g>
<path d="M99.6402 130.198C98.1399 128.44 94.0464 132.981 90.8285 132.022C90.4074 131.899 89.7124 131.578 89.268 130.248C89.268 130.248 88.3691 129.643 86.6949 131.665C85.4519 133.165 84.7167 136.343 79.2633 137.747C75.8281 138.625 73.6661 140.363 76.9242 142.832C80.1822 145.302 85.1545 143.751 90.4074 141.83C95.6604 139.909 98.7881 141.442 101.207 139.888C102.838 138.829 101.294 132.143 99.6402 130.198Z" fill="url(#paint11_linear_650_556)"/>
<path style="mix-blend-mode:multiply" opacity="0.47" d="M83.594 142.064C83.2431 140.728 82.5614 138.946 80.0151 137.533C79.7745 137.606 79.5273 137.68 79.2633 137.747C75.8281 138.626 73.6661 140.363 76.9242 142.833C78.2608 143.835 79.9049 144.169 81.7327 144.086C82.9323 143.197 83.6775 142.382 83.594 142.064Z" fill="url(#paint12_linear_650_556)"/>
<path d="M101.822 136.43C98.4806 136.981 93.926 138.047 91.0924 139.28C87.2128 140.968 79.6809 144.393 75.6108 141.476C75.9607 142.007 76.4073 142.467 76.9274 142.832C80.1888 145.302 85.1577 143.751 90.4107 141.83C91.5632 141.401 92.7586 141.099 93.9762 140.928C94.2435 140.891 94.5041 140.858 94.7581 140.834C95.52 140.757 96.2217 140.734 96.8733 140.714C98.6143 140.667 100.001 140.664 101.217 139.888C101.882 139.444 102.013 138.054 101.822 136.43Z" fill="#F9F9F9"/>
<path d="M118.54 92.0705C119.055 91.068 120.392 89.5442 119.429 87.292C118.333 84.7324 117.017 84.6187 115.419 84.9228C112.853 85.4174 117.441 76.8429 120.034 77.3107C122.627 77.7785 124.02 80.9564 125.183 84.298C126.346 87.6395 131.823 92.0705 130.667 97.1229C130.035 99.9165 128.358 99.6024 126.804 97.6576C125.058 95.6105 122.725 94.149 120.121 93.4706C119.062 93.1866 117.909 93.3102 118.54 92.0705Z" fill="url(#paint13_linear_650_556)"/>
<path style="mix-blend-mode:multiply" opacity="0.47" d="M126.811 97.6576C128.364 99.6024 130.042 99.9165 130.673 97.123C130.931 95.911 130.86 94.6522 130.466 93.4773C127.582 94.1456 125.828 94.9509 124.729 95.7563C125.519 96.2761 126.221 96.9178 126.811 97.6576Z" fill="url(#paint14_linear_650_556)"/>
<path d="M119.757 77.3041C119.649 77.3095 119.543 77.3274 119.439 77.3576L119.372 77.3777C119.275 77.4065 119.18 77.4422 119.088 77.4846L119.035 77.508C118.784 77.6329 118.547 77.7853 118.33 77.9624L118.283 78.0025C118.173 78.0894 118.066 78.183 117.949 78.2866L117.919 78.3133C117.662 78.5573 117.42 78.8162 117.194 79.0885C117.077 79.2289 116.96 79.3759 116.843 79.5263C120.245 80.4619 120.184 80.5522 121.451 81.6582C122.861 82.9013 126.035 87.5026 128.134 90.2762C129.414 91.9636 130.78 95.088 130.807 95.1281C130.793 95.0692 130.787 95.0083 130.791 94.9477C130.319 90.7907 126.182 87.1518 125.187 84.2947C124.024 80.9531 122.634 77.772 120.037 77.3075C119.96 77.2935 119.882 77.2879 119.803 77.2908L119.757 77.3041Z" fill="#F9F9F9"/>
<path d="M31.1571 140.643C34.4421 140.112 36.6748 137.018 36.1438 133.733C35.6129 130.448 32.5195 128.216 29.2345 128.747C25.9494 129.278 23.7168 132.371 24.2477 135.656C24.7786 138.941 27.872 141.174 31.1571 140.643Z" fill="url(#paint15_linear_650_556)"/>
<g style="mix-blend-mode:screen" opacity="0.39">
<path d="M24.1974 133.63C24.3379 132.253 24.9492 130.966 25.9281 129.987C26.9069 129.008 28.1935 128.397 29.5707 128.257C30.0427 129.004 30.2463 129.89 30.1481 130.769C30.0499 131.648 29.6556 132.467 29.0302 133.092C28.4047 133.717 27.5852 134.111 26.7063 134.209C25.8275 134.306 24.9416 134.102 24.1941 133.63H24.1974Z" fill="#FFFF8D"/>
</g>
<defs>
<linearGradient id="paint0_linear_650_556" x1="63.4578" y1="67.2993" x2="109.782" y2="67.2993" gradientUnits="userSpaceOnUse">
<stop stop-color="#FF7043"/>
<stop offset="1" stop-color="#E64A19"/>
</linearGradient>
<linearGradient id="paint1_linear_650_556" x1="89.7725" y1="66.7347" x2="105.605" y2="66.7347" gradientUnits="userSpaceOnUse">
<stop stop-color="#FBC02D"/>
<stop offset="1" stop-color="#FFEE58"/>
</linearGradient>
<linearGradient id="paint2_linear_650_556" x1="46.489" y1="38.856" x2="75.5006" y2="51.5674" gradientUnits="userSpaceOnUse">
<stop stop-color="#9C178D"/>
<stop offset="1" stop-color="#7A096E"/>
</linearGradient>
<linearGradient id="paint3_linear_650_556" x1="36.5112" y1="13.7707" x2="75.9886" y2="13.7707" gradientUnits="userSpaceOnUse">
<stop stop-color="#FF7043"/>
<stop offset="1" stop-color="#E64A19"/>
</linearGradient>
<linearGradient id="paint4_linear_650_556" x1="58.7761" y1="57.7359" x2="71.3438" y2="57.7359" gradientUnits="userSpaceOnUse">
<stop stop-color="#9C178D"/>
<stop offset="1" stop-color="#7A096E"/>
</linearGradient>
<linearGradient id="paint5_linear_650_556" x1="19.8634" y1="79.0074" x2="18.582" y2="127.297" gradientUnits="userSpaceOnUse">
<stop stop-color="#FFEE58"/>
<stop offset="1" stop-color="#FBC02D"/>
</linearGradient>
<linearGradient id="paint6_linear_650_556" x1="60.0091" y1="71.4728" x2="64.4099" y2="75.8737" gradientUnits="userSpaceOnUse">
<stop stop-color="#FF7043"/>
<stop offset="1" stop-color="#E64A19"/>
</linearGradient>
<linearGradient id="paint7_linear_650_556" x1="89.821" y1="45.1762" x2="89.6715" y2="50.812" gradientUnits="userSpaceOnUse">
<stop stop-color="#FBC02D"/>
<stop offset="1" stop-color="#FFEE58"/>
</linearGradient>
<linearGradient id="paint8_linear_650_556" x1="55.2576" y1="9.4233" x2="57.6568" y2="9.4233" gradientUnits="userSpaceOnUse">
<stop stop-color="#FFEE58"/>
<stop offset="1" stop-color="#FBC02D"/>
</linearGradient>
<linearGradient id="paint9_linear_650_556" x1="36.5111" y1="15.3744" x2="43.3747" y2="15.3744" gradientUnits="userSpaceOnUse">
<stop stop-color="#FF7043"/>
<stop offset="1" stop-color="#E64A19"/>
</linearGradient>
<linearGradient id="paint10_linear_650_556" x1="87.0828" y1="78.6543" x2="87.1195" y2="78.6543" gradientUnits="userSpaceOnUse">
<stop stop-color="#9C178D"/>
<stop offset="1" stop-color="#7A096E"/>
</linearGradient>
<linearGradient id="paint11_linear_650_556" x1="101.532" y1="134.885" x2="74.954" y2="138.912" gradientUnits="userSpaceOnUse">
<stop stop-color="#7A096E"/>
<stop offset="1" stop-color="#9C178D"/>
</linearGradient>
<linearGradient id="paint12_linear_650_556" x1="75.6096" y1="141.8" x2="83.5029" y2="140.604" gradientUnits="userSpaceOnUse">
<stop stop-color="#9C178D"/>
<stop offset="1" stop-color="#7A096E"/>
</linearGradient>
<linearGradient id="paint13_linear_650_556" x1="115.5" y1="89.6526" x2="129.58" y2="87.4024" gradientUnits="userSpaceOnUse">
<stop stop-color="#7A096E"/>
<stop offset="1" stop-color="#9C178D"/>
</linearGradient>
<linearGradient id="paint14_linear_650_556" x1="124.935" y1="97.0919" x2="130.971" y2="96.1274" gradientUnits="userSpaceOnUse">
<stop stop-color="#9C178D"/>
<stop offset="1" stop-color="#7A096E"/>
</linearGradient>
<linearGradient id="paint15_linear_650_556" x1="34.4681" y1="139.475" x2="25.6129" y2="130.617" gradientUnits="userSpaceOnUse">
<stop stop-color="#FBC02D"/>
<stop offset="1" stop-color="#FFEE58"/>
</linearGradient>
</defs>
</svg>
