<svg width="13" height="13" viewBox="0 0 13 13" fill="none" xmlns="http://www.w3.org/2000/svg">
<path id="Vector" d="M2.82056 1.8659C2.8206 2.15729 2.93637 2.43673 3.14241 2.64277C3.34846 2.84881 3.6279 2.96458 3.91928 2.96463L9.03606 2.96541L0.950233 11.0621C0.744151 11.2682 0.628374 11.5477 0.628374 11.8392C0.628374 12.1306 0.74415 12.4101 0.950233 12.6162C1.15632 12.8223 1.43582 12.938 1.72727 12.938C2.01871 12.938 2.29822 12.8223 2.5043 12.6162L10.5909 4.5187L10.5909 9.63626C10.5884 9.78215 10.6149 9.92709 10.669 10.0626C10.7231 10.1981 10.8036 10.3215 10.9059 10.4256C11.0082 10.5297 11.1301 10.6123 11.2647 10.6688C11.3993 10.7252 11.5437 10.7542 11.6896 10.7542C11.8356 10.7542 11.98 10.7252 12.1146 10.6688C12.2491 10.6123 12.3711 10.5297 12.4734 10.4256C12.5757 10.3215 12.6562 10.1981 12.7103 10.0626C12.7644 9.92709 12.7909 9.78215 12.7884 9.63626L12.7891 4.06413C12.7892 3.63116 12.7039 3.20242 12.5383 2.8024C12.3726 2.40238 12.1297 2.03891 11.8236 1.73275C11.5174 1.42659 11.1539 1.18374 10.7539 1.01806C10.3539 0.852389 9.92516 0.767136 9.49218 0.767172L3.91928 0.767172C3.6279 0.767216 3.34846 0.882988 3.14241 1.08903C2.93637 1.29507 2.8206 1.57451 2.82056 1.8659Z" fill="#374957"/>
</svg>
