<svg width="46" height="68" viewBox="0 0 46 68" fill="none" xmlns="http://www.w3.org/2000/svg">
<g id="Group">
<path id="Vector" d="M21.3721 0.446817C8.30457 1.23538 1.43283 8.67037 0.869568 22.0759H14.0498C14.1624 17.4572 16.8661 13.965 21.5974 13.4017C26.3288 12.9511 30.8349 14.0776 32.1867 17.2319C33.6512 20.7241 30.3843 24.7795 28.8071 26.4693C25.8782 29.6236 21.1468 31.9892 18.6685 35.3688C16.3028 38.7483 15.8522 43.1417 15.6269 48.549H27.23C27.3427 45.0568 27.568 41.7899 29.1451 39.6495C31.7361 36.1573 35.5662 34.5802 38.7205 31.7639C41.7621 29.1729 45.029 26.0187 45.4796 21.062C47.3946 6.53 35.4536 -0.454395 21.3721 0.446817Z" fill="#FF636E"/>
<path id="Vector_2" d="M21.7101 67.925C25.7541 67.925 29.0324 64.6971 29.0324 60.7153C29.0324 56.7335 25.7541 53.5056 21.7101 53.5056C17.6661 53.5056 14.3877 56.7335 14.3877 60.7153C14.3877 64.6971 17.6661 67.925 21.7101 67.925Z" fill="#FF636E"/>
</g>
</svg>
