<svg width="138" height="207" viewBox="0 0 138 207" fill="none" xmlns="http://www.w3.org/2000/svg">
<g id="Group">
<path id="Vector" d="M63.0291 0.484693C23.1942 2.88852 2.2465 25.5532 0.52948 66.4183H40.7078C41.0512 52.3387 49.2929 41.6932 63.7159 39.9762C78.1389 38.6026 91.875 42.0366 95.9959 51.6519C100.46 62.2975 90.5014 74.66 85.6937 79.8111C76.7652 89.4264 62.3423 96.6379 54.7874 106.94C47.5759 117.242 46.2023 130.635 45.5154 147.118H80.8861C81.2295 136.473 81.9163 126.514 86.724 119.989C94.6223 109.344 106.298 104.536 115.913 95.9511C125.185 88.0528 135.144 78.4375 136.518 63.3277C142.355 19.0285 105.955 -2.26254 63.0291 0.484693Z" fill="#FF636E"/>
<path id="Vector_2" d="M64.0593 206.184C76.387 206.184 86.3805 196.344 86.3805 184.206C86.3805 172.068 76.387 162.229 64.0593 162.229C51.7316 162.229 41.738 172.068 41.738 184.206C41.738 196.344 51.7316 206.184 64.0593 206.184Z" fill="#FF636E"/>
</g>
</svg>
