<svg width="60" height="60" viewBox="0 0 60 60" fill="none" xmlns="http://www.w3.org/2000/svg">
<circle cx="30" cy="30" r="30" transform="matrix(-1 0 0 1 60 0)" fill="#353535"/>
<path fill-rule="evenodd" clip-rule="evenodd" d="M43.3425 32.0397C43.7635 31.6276 44 31.069 44 30.4866C44 29.9042 43.7635 29.3456 43.3425 28.9335L34.8658 20.6434C34.4441 20.2313 33.8722 19.9999 33.2759 20C32.9807 20.0001 32.6883 20.057 32.4156 20.1675C32.1428 20.278 31.895 20.44 31.6863 20.6441C31.4776 20.8483 31.312 21.0906 31.1991 21.3573C31.0862 21.624 31.0281 21.9099 31.0282 22.1985C31.0283 22.4871 31.0865 22.7729 31.1995 23.0396C31.3126 23.3062 31.4782 23.5485 31.6871 23.7526L38.5751 30.4866L31.6871 37.2206C31.4723 37.4233 31.3009 37.6657 31.1829 37.9338C31.065 38.2019 31.0028 38.4903 31.0001 38.7821C30.9974 39.0739 31.0541 39.3633 31.167 39.6335C31.2799 39.9036 31.4467 40.1491 31.6577 40.3555C31.8687 40.562 32.1196 40.7253 32.3958 40.8359C32.672 40.9466 32.968 41.0023 33.2665 40.9999C33.565 40.9975 33.8601 40.937 34.1344 40.822C34.4087 40.7069 34.6569 40.5396 34.8643 40.3298L43.3455 32.0397H43.3425Z" fill="#FF676E"/>
<path fill-rule="evenodd" clip-rule="evenodd" d="M31.3931 32.0397C31.7817 31.6276 32 31.069 32 30.4866C32 29.9042 31.7817 29.3456 31.3931 28.9335L23.5685 20.6434C23.1792 20.2313 22.6513 19.9999 22.1008 20C21.8283 20.0001 21.5585 20.057 21.3067 20.1675C21.0549 20.278 20.8262 20.44 20.6335 20.6441C20.4409 20.8483 20.288 21.0906 20.1838 21.3573C20.0796 21.624 20.026 21.9099 20.026 22.1985C20.0261 22.4871 20.0798 22.7729 20.1842 23.0396C20.2885 23.3062 20.4415 23.5485 20.6342 23.7526L26.9924 30.4866L20.6342 37.2206C20.4359 37.4233 20.2777 37.6657 20.1689 37.9338C20.06 38.2019 20.0026 38.4903 20.0001 38.7821C19.9976 39.0739 20.0499 39.3633 20.1542 39.6335C20.2584 39.9036 20.4124 40.1491 20.6071 40.3555C20.8019 40.562 21.0335 40.7253 21.2884 40.8359C21.5434 40.9466 21.8167 41.0023 22.0922 40.9999C22.3677 40.9975 22.64 40.937 22.8933 40.822C23.1465 40.7069 23.3756 40.5396 23.5671 40.3298L31.3959 32.0397H31.3931Z" fill="#FF676E"/>
</svg>
